<?xml version='1.0' encoding='utf-8'?>
<svg xmlns="http://www.w3.org/2000/svg" enable-background="new 102.173 -116.77 620 445.001" version="1.1" viewBox="102.173 -116.77 620 445.001">
	<path d="m722.17-116.77v445h-620v-445h620z" fill="#262631"/>
	<path d="m722.17-116.77v294.34h-620v-294.34h620z" fill="#4D4D62"/>
	<path d="m722.17 202.17c-1.541 1.291-3.262 2.49-5.182 3.586-3.699 2.114-8.719 2.295-12.791 3.267-6.199 1.478-12.379 2.353-18.707 2.971-6.854 0.671-13.713 1.037-20.592 1.327-21.789 0.921-43.623-0.231-65.41-0.718-57.338-1.277-116.1-0.691-170.08-23.64-5.174-2.2-10.291-4.545-15.402-6.895-3.697 1.57-38.685-1.213-41.442-4.592-9.611-11.775 17.983-19.248 23.634-22.596 24.283-14.386 47.994-23.892 73.638-34.996 29.926-12.958 42.736 32.357 63.83 44.643 9.205 5.36 24.08 9.565 34.758 6.711 12.494-3.343 15.961-14.301 13.373-26.099-1.568-7.146-17.387-33.768-9.455-40.765 5.559-4.903 23.756-3.964 31.406-6.335 5.242-1.625 10.283-3.826 15.072-7.111 8.857-6.078 19.906-9.813 22.658 3.974 2.311 11.565-12.025 26.858-0.701 37.591 8.947 8.481 16.113-4.409 23.908-8.421 14.02-7.212 27.578-19.442 43.469-22.34 6.98-1.273 11.285 0.727 14.02 4.524v95.914z" fill="#C26558"/>
	<path d="m722.17 204.1c-1.352 1.05-2.828 2.036-4.438 2.957-2.803 1.601-6.131 2.156-9.354 2.694-1.355 0.229-2.639 0.441-3.834 0.728-5.613 1.338-11.621 2.293-18.91 3.005-7.293 0.714-14.543 1.074-20.674 1.333-5.537 0.232-11.342 0.348-17.746 0.348-10.637 0-21.439-0.321-31.889-0.632-5.293-0.157-10.584-0.315-15.873-0.433-4.248-0.096-8.506-0.181-12.768-0.265-52.91-1.05-107.62-2.135-157.87-23.494-4.844-2.06-9.459-4.163-14.93-6.677-0.811 0.186-2.283 0.353-5.234 0.353-8.402 0-34.261-1.924-37.256-5.595-2.056-2.517-2.771-5.092-2.125-7.651 1.726-6.86 12.718-11.42 20.743-14.75 2.343-0.973 4.366-1.813 5.412-2.433 20.91-12.387 41.337-21.145 62.966-30.418 3.58-1.534 7.191-3.083 10.842-4.664 3.725-1.611 7.395-2.43 10.912-2.43 14.439 0 24.584 13.348 34.393 26.256 6.533 8.6 12.703 16.72 19.875 20.896 7.75 4.513 18.09 7.43 26.344 7.43 2.664 0 5.111-0.294 7.273-0.872 10.428-2.79 15.023-11.884 12.295-24.327-0.398-1.813-1.895-5.222-3.623-9.169-5.039-11.495-11.939-27.235-5.359-33.042 3.813-3.362 12.164-4.161 20.244-4.933 4.604-0.439 8.951-0.855 11.711-1.71 5.631-1.746 10.43-4.009 14.666-6.916 3.809-2.612 9.396-5.728 14.395-5.728 3.859 0 8.83 1.848 10.586 10.644 0.977 4.889-0.752 10.272-2.422 15.479-2.543 7.929-4.947 15.415 1.279 21.315 1.719 1.629 3.391 2.421 5.107 2.421 3.309 0 6.748-2.982 10.074-5.866 2.252-1.951 4.578-3.969 7.01-5.221 4.555-2.342 8.984-5.175 13.676-8.173 9.469-6.054 19.26-12.313 30.209-14.31 1.482-0.271 2.9-0.406 4.215-0.406 4.512 0 7.736 1.498 10.076 3.973v5.376c-1.951-3.86-5.023-6.349-10.076-6.349-1.135 0-2.371 0.119-3.678 0.357-10.367 1.891-19.906 7.988-29.131 13.885-4.543 2.904-9.24 5.906-13.918 8.313-2.111 1.086-4.301 2.983-6.418 4.819-3.742 3.243-7.611 6.6-12.039 6.6-2.488 0-4.9-1.092-7.172-3.243-7.596-7.198-4.662-16.342-2.072-24.409 1.625-5.065 3.16-9.852 2.338-13.977-1.105-5.538-3.605-8.23-7.645-8.23-3.35 0-7.738 1.8-12.697 5.201-4.488 3.08-9.551 5.47-15.475 7.308-3.055 0.945-7.555 1.376-12.314 1.83-7.248 0.692-15.463 1.479-18.545 4.196-4.939 4.356 1.986 20.15 6.121 29.587 1.869 4.264 3.346 7.629 3.807 9.731 3.068 13.983-2.469 24.663-14.449 27.868-2.416 0.646-5.123 0.974-8.049 0.974-8.746 0-19.678-3.077-27.854-7.838-7.688-4.479-14.33-13.219-20.754-21.673-9.367-12.326-19.053-25.071-32.004-25.071-3.104 0-6.375 0.734-9.721 2.184-3.652 1.582-7.27 3.133-10.852 4.667-21.535 9.234-41.877 17.955-62.619 30.243-1.229 0.729-3.243 1.563-5.792 2.62-6.592 2.735-17.626 7.313-18.984 12.712-0.406 1.613 0.099 3.257 1.54 5.023 1.89 1.88 22.138 4.49 34.933 4.49 3.869 0 4.682-0.298 4.762-0.331l0.609-0.259 0.604 0.275c5.674 2.608 10.408 4.771 15.363 6.878 49.713 21.132 104.13 22.212 156.76 23.255 4.264 0.085 8.523 0.169 12.773 0.265 5.297 0.117 10.596 0.275 15.895 0.434 10.428 0.311 21.209 0.631 31.801 0.631 6.361 0 12.125-0.113 17.619-0.346 6.09-0.257 13.289-0.614 20.51-1.321 7.148-0.698 13.029-1.631 18.506-2.937 1.293-0.31 2.688-0.542 4.035-0.768 2.961-0.495 6.023-1.008 8.359-2.343 2.25-1.285 4.215-2.726 5.926-4.297v3.953h2e-3z"/>
	<path d="m533.24-23.677c-0.268-1.38-3.705-0.688-6.348-0.616-6.248 0.171-12.422-4e-3 -17.936-3.344-7.717-4.674-14.947-11.481-20.625-18.472-3.227-3.973-5.242-7.605-6.234-12.643-2.369 11.042-2.221 24.019 2.281 34.527 3.627 8.47 9.057 19.531 16.82 24.846 2.764 1.893 8.143 4.265 10.822 2.666 4.242-2.53 7.348-9.458 9.984-13.428 2.936-4.415 7.246-7.294 10.295-11.369 0.765-1.017 1.029-1.707 0.941-2.167z" fill="#A06262"/>
	<path d="m512.91-25.791c-1.348-0.469-2.666-1.067-3.949-1.846-7.717-4.674-14.947-11.481-20.625-18.472-3.227-3.973-5.242-7.605-6.232-12.643-1.016 4.72-1.563 9.793-1.512 14.875 8.673 9.977 20.072 17.346 32.318 18.086z" fill="#E17D7E"/>
	<path d="m509.8 5.316c-3.471-1e-3 -7.568-2.172-9.443-3.455-8.16-5.585-13.813-17.226-17.354-25.493-4.223-9.858-5.086-22.773-2.369-35.433l2.939 0.023c0.865 4.397 2.584 7.87 5.926 11.985 6.061 7.46 13.246 13.899 20.238 18.135 4.613 2.794 9.822 3.171 14.309 3.171 0.934 0 1.869-0.018 2.809-0.043 0.596-0.017 1.23-0.065 1.861-0.114 0.789-0.061 1.605-0.123 2.336-0.123 0.809 0 3.266 0 3.664 2.068 0.186 0.953-0.188 1.986-1.209 3.352-1.465 1.959-3.199 3.646-4.879 5.279-1.986 1.935-3.863 3.76-5.367 6.021-0.645 0.971-1.334 2.149-2.063 3.398-2.301 3.938-4.906 8.4-8.404 10.486-0.822 0.494-1.83 0.743-2.994 0.743zm-27.25-57.686c-1.215 10.023-0.104 19.814 3.211 27.558 3.395 7.925 8.775 19.056 16.289 24.197 2.129 1.457 5.475 2.932 7.75 2.933 0.617 0 1.107-0.106 1.457-0.315 2.834-1.689 5.234-5.799 7.352-9.423 0.752-1.288 1.461-2.504 2.154-3.547 1.68-2.529 3.762-4.554 5.773-6.512 1.67-1.623 3.244-3.156 4.568-4.927 0.186-0.248 0.318-0.449 0.416-0.609-0.129-8e-3 -0.283-0.014-0.469-0.014-0.615 0-1.34 0.056-2.107 0.114-0.68 0.052-1.367 0.104-2.008 0.121-0.967 0.026-1.932 0.045-2.893 0.045-4.9 0-10.617-0.428-15.861-3.604-7.279-4.409-14.74-11.089-21.012-18.811-2.038-2.51-3.53-4.814-4.62-7.206z"/>
		<path d="m507.49-6.506c0.732-1.723 1.492-3.418 2.246-5.079 2.773-6.103 6.75-11.592 11.26-16.496 4.521-4.918 9.633-10.854 15.49-14.175 19.611-11.115 41.461-14.057 63.664-12.822 45.672 2.537 84.777 42.148 70.727 89.368-4.664 15.673-5.377 29.888-15.129 43.861-11.936 17.099-29.598 32.109-30.766 54.79-0.861 16.742-5.332 21.83-23.438 22.014-8.852 0.09-26.096 5.504-33.785 0.635-8.412-5.325-4.656-16.114-5.693-24.051-1.367-10.45-7.949-14.808-16.881-20.879-3.535-2.403-7.568-4.875-10.807-7.561-3.674-3.051-5.205-8.201-7.492-12.313-2.117-3.808-1.287-7.518-0.262-11.5 1.063-4.137 1.785-7.938 0.098-12.013-1.711-4.131-5.344-4.829-8.307-7.631-6.496-6.143-7.932-16.342-10.938-24.376-2.445-6.548-6.119-13.386-5.689-20.585 0.432-7.179 2.903-14.605 5.702-21.187z" fill="#C26558"/>
		<path d="m547.17 78.23c-5.131-3.42-12.211-3.589-19.758-2.548-0.201 1.183-0.477 2.378-0.791 3.604-1.025 3.982-1.857 7.692 0.262 11.5 2.287 4.111 3.816 9.263 7.492 12.313 3.236 2.686 7.27 5.156 10.805 7.561 8.932 6.071 15.514 10.429 16.883 20.879 1.037 7.937-2.719 18.726 5.691 24.051 2.254 1.428 5.33 1.968 8.773 2.021-4.357-29.601-4.657-61.267-29.357-79.381z" fill="#DE7C6F"/>
		<path d="m522.17-5.77c6.936-13.866 14.91-27.877 23.979-41.24-3.275 1.383-6.5 2.96-9.666 4.754-5.857 3.32-10.969 9.257-15.49 14.175-4.51 4.904-8.486 10.395-11.26 16.496-0.756 1.661-1.516 3.356-2.246 5.079-2.799 6.582-5.271 14.008-5.701 21.188-0.43 7.199 3.244 14.037 5.689 20.585 1.623 4.339 2.795 9.306 4.545 13.928 2.596-4.695 5.299-9.355 8.15-13.965 6-11-5-28 2-41z" fill="#DE7C6F"/>
		<path d="m670.87 34.29c14.049-47.215-25.047-86.823-70.732-89.368-12.123-0.675-24.441-0.139-36.316 2.521 6.164-1.381 17.172 5.483 24.572 5.433 10.881-0.077 21.684-3.129 30.555 5.348 11.072 10.58 10.217 26.163 13.955 39.887 4.178 15.341 12.803 33.822 12.277 49.91-0.438 13.373-9.246 29.953-14.975 42.065-3.453 7.31-12.852 21.744-5.789 28.771 9.445-14.023 18.375-27.826 29.318-40.501 11.019-12.762 12.39-28.126 17.135-44.066z" fill="#9C4E43"/>
		<path d="m577.11 159.12c-4.428 0-7.748-0.739-10.152-2.261-6.77-4.287-6.506-11.666-6.273-18.176 0.09-2.487 0.174-4.838-0.104-6.948-1.266-9.656-7.094-13.618-15.916-19.614l-0.322-0.219c-0.912-0.62-1.857-1.246-2.814-1.878-2.775-1.833-5.646-3.729-8.105-5.77-2.887-2.396-4.498-5.824-6.057-9.139-0.598-1.272-1.162-2.474-1.787-3.599-2.494-4.483-1.336-8.986-0.404-12.604 0.994-3.869 1.693-7.372 0.164-11.063-0.93-2.245-2.57-3.304-4.471-4.527-1.15-0.74-2.338-1.507-3.48-2.588-5.09-4.813-7.176-11.724-9.189-18.406-0.695-2.305-1.354-4.481-2.121-6.534-0.496-1.332-1.037-2.653-1.609-4.054-2.229-5.454-4.535-11.093-4.172-17.146 0.375-6.271 2.277-13.364 5.816-21.686 0.807-1.896 1.631-3.729 2.262-5.112 2.6-5.723 6.477-11.404 11.521-16.892l1.348-1.472c4.227-4.633 9.018-9.882 14.508-12.992 17.984-10.193 38.928-14.435 64.486-13.017 25.531 1.419 49.051 14.028 62.91 33.732 11.918 16.94 15.174 37.384 9.17 57.562-1.313 4.411-2.32 8.753-3.295 12.952-2.518 10.853-4.896 21.103-12.041 31.34-2.971 4.255-6.338 8.438-9.594 12.485-9.857 12.249-20.051 24.916-20.904 41.523-0.926 17.992-6.516 23.25-24.92 23.437-2.672 0.027-6.26 0.577-10.055 1.159-4.599 0.708-9.81 1.507-14.4 1.507zm13.834-212.96c-20.844 0-38.414 4.216-53.719 12.889-5.072 2.877-9.693 7.938-13.77 12.405l-1.355 1.48c-4.828 5.251-8.527 10.668-10.998 16.102-0.623 1.369-1.438 3.18-2.23 5.045-3.402 8-5.229 14.77-5.584 20.691-0.32 5.371 1.854 10.688 3.955 15.831 0.557 1.358 1.131 2.765 1.645 4.139 0.801 2.144 1.502 4.47 2.182 6.719 1.902 6.308 3.871 12.829 8.379 17.093 0.941 0.891 1.965 1.55 3.045 2.246 2.129 1.372 4.33 2.79 5.617 5.9 1.883 4.542 1.061 8.723-0.029 12.96-1.049 4.076-1.654 7.207 0.119 10.397 0.676 1.215 1.289 2.52 1.883 3.78 1.418 3.019 2.885 6.139 5.258 8.106 2.332 1.936 5.133 3.785 7.84 5.574 0.971 0.64 1.928 1.271 2.852 1.899l0.32 0.219c8.809 5.985 15.766 10.715 17.203 21.706 0.311 2.357 0.217 4.943 0.127 7.444-0.223 6.257-0.434 12.168 4.883 15.533 1.908 1.209 4.703 1.796 8.547 1.796 4.361 0 9.23-0.747 13.941-1.469 3.904-0.601 7.594-1.165 10.479-1.194 16.805-0.17 21.111-4.212 21.955-20.591 0.904-17.577 11.406-30.629 21.563-43.25 3.227-4.008 6.561-8.151 9.469-12.321 6.816-9.764 9.131-19.739 11.582-30.301 0.984-4.243 2.002-8.631 3.342-13.13 5.736-19.279 2.631-38.807-8.748-54.98-13.338-18.959-36-31.095-60.623-32.462-3.105-0.169-6.173-0.256-9.13-0.256z"/>
		<path d="m605.95-25.689c6.664 8.107 21.904-9.091 24.734-13.567 7.406-11.718 14.393-23.431 15.203-37.468 8.266 2.925 9.42 16.521 9.965 23.896 0.857 11.631-2.785 21.822-8.135 31.893-4.525 8.517-9.27 22.673-21.26 20.693-4.904-0.809-7.346-3.592-10.82-6.781-2.895-2.659-6.016-5.741-7.658-9.377-1.326-2.942-0.272-7.15-2.029-9.289z" fill="#A06262"/>
		<path d="m640.93-57.515c-2.797 6.29-6.463 12.273-10.244 18.258-1.77 2.798-8.385 10.563-14.725 14.017 3.057-0.21 6.123-0.688 9.211-1.528 11.541-3.298 14.924-17.468 15.758-30.747z" fill="#E17D7E"/>
		<path d="m655.85-52.828c-0.396-5.383-1.123-14.072-4.684-19.496 5.055 7.727 1.004 21.556-0.273 29.984-0.793 5.225-19.883 43.828-26.846 41.482 0.738 0.262 1.533 0.471 2.408 0.614 11.99 1.979 16.734-12.178 21.26-20.693 5.35-10.069 8.994-20.261 8.135-31.891z" fill="#643738"/>
		<path d="m628.68 1.445c-0.801 0-1.629-0.07-2.463-0.207-4.783-0.789-7.398-3.239-10.428-6.076-0.377-0.354-0.762-0.715-1.162-1.081-2.939-2.701-6.227-5.913-8.012-9.865-0.715-1.584-0.84-3.399-0.949-5.003-0.113-1.621-0.219-3.15-0.869-3.946 0-1e-3 -2e-3 -2e-3 -2e-3 -4e-3l2.318-1.903c0.881 1.073 1.967 1.595 3.32 1.595 6.535 0 16.775-11.516 18.984-15.012 7.738-12.241 14.205-23.455 14.977-36.753l0.115-1.993 1.881 0.666c9.342 3.306 10.436 18.094 10.959 25.2 0.982 13.285-3.922 24.457-8.305 32.706-0.639 1.199-1.281 2.516-1.961 3.906-3.866 7.917-8.68 17.77-18.403 17.77zm-20.121-23.726c0.041 0.43 0.07 0.859 0.1 1.287 0.098 1.416 0.199 2.883 0.691 3.976 1.553 3.436 4.586 6.39 7.307 8.89 0.408 0.373 0.801 0.741 1.186 1.103 2.781 2.605 4.979 4.664 8.865 5.305 0.672 0.111 1.336 0.168 1.973 0.168 7.852 0 12.027-8.547 15.711-16.087 0.691-1.416 1.346-2.753 2.008-3.999 6.229-11.725 8.684-21.309 7.963-31.077-0.438-5.908-1.305-17.646-7.152-21.665-1.354 13.015-7.719 24.01-15.252 35.928-2.195 3.475-13.16 16.408-21.521 16.408-0.654-3e-3 -1.281-0.081-1.879-0.237z"/>
		<path d="m657.78-5.826c2.982-2.688 10.457-9.483 15.029-8.273 5.354 1.417 0.053 9.174-1.607 11.974-2.805 4.729-6.381 9.166-8.092 14.455-1.172 3.627-1.846 7.271-3.338 10.813-2.781 6.6-2.566 12.237-3.266 19.36-0.738 7.521-1.174 15.115-1.676 22.658-0.371 5.557 1.436 17.668-7.664 15.983-4.055-0.751-7.076-6.501-7.584-10.385-0.658-5.016 4.047-9.168 4.232-14.265 0.197-5.446-3.785-9.435-4.094-14.769-0.162-2.874 0.297-5.437-0.678-8.224-0.951-2.729-4.117-5.576-4.016-7.772 0.137-3 4.916-8.536 6.516-11.121 4.587-7.401 9.742-14.579 16.238-20.434z" fill="#C26558"/>
		<path d="m653.15 19.13c-0.801 1.208-1.375 2.631-1.602 4.724-0.496 4.63 0.982 8.929 0.785 13.446-0.176 4.034-0.814 8.077-0.914 12.173-0.076 3.136-1.076 5.796-0.729 8.859 0.348 3.088 3.574 11.9-2.396 11.521-6.086-0.387-4.635-9.734-2.771-13.398 1.645-3.24 4.063-3.707 3.984-7.84-0.057-3.109-1-7.768-3.271-10.088-2.934-2.991-4.449-2.658-3.381-7.632 0.715-3.328 2.686-6.313 3.572-9.56 0.932-3.398 2.193-5.688 4.553-8.523 1.258-1.517 4.658-5.483 7.113-4.372 2.574 1.166 0.795 3.826-0.455 5.438-1.711 2.213-3.334 3.507-4.488 5.252z" fill="#9C4E43"/>
		<path d="m643.57 38.027c-2.746-5.781-1.822-21.195 7.031-21.72 0.979 5.293-5.441 7.957-6.441 12.746-1.109 5.306 2.617 8.265 5.307 12.104 3.66 5.228 3.998 24.746-6.139 19.57-1.619-0.826-4.73-3.646-2.281-5.428 3.088-2.244 7.41 4.433 8.566-3.353 0.719-4.823-4.117-9.866-6.043-13.919z"/>
		<path d="m676.32-12.991c-0.355-0.885-1.186-2.047-3.121-2.56-0.484-0.128-1.002-0.192-1.541-0.192-5.117 0-11.648 5.892-14.787 8.724l-0.09 0.08c-5.713 5.148-10.803 11.552-16.506 20.76-0.402 0.649-1.066 1.564-1.773 2.536-1.639 2.254-5.232 6.133-4.939 9.219 0.209 2.225 3.145 5.396 4.547 7.297 0.121-1.74 0.146-3.188-0.225-4.865-0.203-0.92-1.313-1.268-1.32-2.392-0.021-2.479 3.006-5.625 4.365-7.496 0.771-1.06 1.438-1.975 1.896-2.719 5.547-8.957 10.471-15.16 15.965-20.111l0.09-0.081c2.41-2.175 8.814-7.95 12.777-7.95 0.279 0 0.539 0.031 0.771 0.094 0.889 0.233 1.045 0.629 1.105 0.776 0.74 1.842-1.971 6.278-3.129 8.173-0.184 0.301-0.35 0.571-0.49 0.81-0.781 1.317-1.648 2.649-2.486 3.938-2.191 3.365-4.457 6.847-5.74 10.819-0.449 1.388-0.828 2.781-1.193 4.13-0.621 2.28-1.205 4.435-2.104 6.563-2.273 5.401-2.633 10.261-3.014 15.404-0.104 1.411-0.211 2.867-0.361 4.393-0.602 6.128-1.006 12.386-1.398 18.438l-0.279 4.269c-0.064 0.975-0.064 2.117-0.066 3.326-0.01 6.469-0.344 11.416-4.48 11.416-0.412 0-0.865-0.046-1.346-0.135-3.238-0.601-5.938-5.793-6.371-9.104-0.289-2.215 1.727-4.191 1.574-6.031-0.014-0.135-1.297-3.193-1.902-2.503-1.857 2.126-3.023 6.053-2.645 8.925 0.564 4.312 3.938 10.763 8.799 11.663 0.66 0.123 1.297 0.186 1.891 0.186 7.465 0 7.475-8.674 7.48-14.412 2e-3 -1.159 4e-3 -2.254 0.063-3.131l0.279-4.272c0.391-6.027 0.795-12.26 1.393-18.339 0.15-1.55 0.262-3.029 0.367-4.464 0.375-5.104 0.701-9.514 2.787-14.462 0.973-2.313 1.611-4.666 2.229-6.94 0.357-1.313 0.729-2.673 1.154-3.992 1.162-3.595 3.221-6.758 5.4-10.105 0.854-1.314 1.74-2.673 2.553-4.046 0.135-0.228 0.295-0.486 0.471-0.773 1.737-2.857 4.651-7.625 3.35-10.864z"/>
	<path d="m567.1 107.9c-2.123-1.56-4.09-3.188-5.756-4.666 0.975 0.862 11.824-2.466 13.541-3.108 4.902-1.835 8.518-5.607 12.652-8.642 4.959-3.64 9.479-4.867 13.379-9.703 4.711-5.844 7.631-12.65 11.992-18.744 2.707-3.781 6.914-8.096 7.936-12.703-0.484 13.31-4.268 25.555-8.604 38.019-2.898 8.332-5.271 18.905-14.119 23.231-4.973 2.433-12.924 4.25-18.252 2.976-4.179-1.001-8.755-3.708-12.769-6.66z" fill="#F1F2F2"/>
	<path d="m571.17 56.898c4.186 2.063 12.607-3.011 16.664-5.13 7.348-3.842 14.627-7.832 20.686-13.421-0.26 7.489-3.018 17.18-9.514 21.601-5.525 3.76-14.92 7.476-21.611 5.31-3.648-1.182-4.852-3.627-5.273-7.311-1.018-0.16-1.088-0.693-1.951-1.049h0.999z" fill="#F1F2F2"/>
	<path d="m622.84 49.973c-1.947-0.601-5.949-1.537-7.779-0.428-2.838 1.72 2.166 1.696 3.395 1.735 0.109 4e-3 -4.217 7.557-4.572 8.01-0.781 0.996-1.52 1.936-2.188 2.871-1.967 2.746-3.654 5.649-5.287 8.458-2.105 3.621-4.094 7.041-6.654 10.218-2.354 2.917-4.922 4.41-7.896 6.139-1.668 0.968-3.391 1.969-5.199 3.297-1.191 0.873-2.344 1.809-3.457 2.714-2.848 2.313-5.537 4.499-8.834 5.731-1.764 0.66-10.09 3.155-12.33 3.155-0.055 0-0.102 0-0.141-6e-3 2e-3 0 0.217 0.035 0.449 0.242l-1.99 2.244c1.938 1.722 3.912 3.32 5.859 4.753 4.984 3.662 9.461 5.986 13.311 6.908 1.275 0.306 2.727 0.46 4.313 0.46 4.674 0 10.541-1.393 14.947-3.547 8.273-4.046 11.197-12.942 13.775-20.794 0.367-1.123 0.73-2.227 1.102-3.293 2.109-6.059 4.129-12.157 5.682-18.388 0.846-3.395 1.652-6.863 2.086-10.34 0.322-2.611-1.131-4.994-0.197-7.5 2.678-0.025 4.152 2.658 6.559 2.565 1.677-0.06-4.106-4.943-4.954-5.204zm-15.83 25.105c0.904-2.369 2.291-4.535 3.785-6.625 1.857 1.354 2.59 3.541 3.736 5.289-2.846 5.744-3.836 12.383-8.643 16.736 0.314-1.438 0.691-3.074 0.674-3.704-0.104-3.788-0.995-7.913 0.448-11.696zm-20.701 21.526c1.596 0.479 6.025 4.207 7.162 0.936-1.447-0.557-6.65-0.962-6.996-2.902-0.281-1.575 3.904-3.991 5.141-4.165 2.457-0.345 3.451 1.606 5.898 2.266 1.711 0.459 4.641 1.338 4.615-1.447-2.313-0.553-4.895-1.718-6.596-3.292 2.559-1.109 4.777-3.073 6.555-5.275 0.877-1.091 1.564-2.158 2.643-2.916 1.645 3.535-0.336 7.671 0.275 11.423-0.033 0.026-0.063 0.058-0.1 0.085-6.475 4.901-13.771 8.714-21.186 12.071-1.539-0.682-4.213-1.854-4.195-3.471 0.04-3.307 4.788-3.911 6.784-3.313zm-21.217 7.842c3.957-0.831 9.502-2.61 10.322-2.917 3.652-1.367 3.152 0.162 5.777 2.377 0.145 0.122 0.307 0.261 0.48 0.404-3.158 1.437-6.359 3.057-8.65 5.697-1.609-0.933-3.295-2.042-5.031-3.318-0.962-0.707-1.929-1.456-2.898-2.243zm12.18 7.675c-1.262-0.514-2.598-1.174-3.994-1.971 0.984-0.119 2.51-0.839 4.104-1.715 0.201 1.184 0.179 2.52-0.11 3.686zm2.949 0.977c-0.445-0.107-0.908-0.241-1.385-0.396-0.432-1.543-0.473-3.34-1.107-4.457 0.502-0.282 1.006-0.573 1.502-0.865 0.83 0.792 2.104 1.066 2.754 1.868 0.984 1.218 0.996 2.708 1.855 3.984l0.805 0.201c-1.654 0.063-3.176-0.037-4.424-0.335zm20.608-5.096c-2.361-2.118-6.295-6.971-9.029-4.445 1.934 2.005 5.035 4.164 7.537 5.577-0.59 0.399-1.205 0.774-1.871 1.102-0.77 0.376-1.592 0.722-2.439 1.041-2.604-2.273-6.75-7.865-9.826-4.443 3.021-0.104 5.26 2.912 7.307 4.732l1.326 0.133c-2.455 0.813-5.09 1.383-7.541 1.625-1-2.568-3.07-6.327-6.154-6.482 1.104-0.657 2.088-1.255 2.793-1.633 0.881 0.494 1.691 0.558 1.826-0.877 3.225-1.424 6.496-2.312 9.707-3.871 1.639-0.795 3.195-1.759 4.682-2.84-1.475 3.133 1.676 6.265 3.861 8.136-0.662 0.809-1.386 1.559-2.179 2.245zm9.998-20.146c-0.377 1.083-0.744 2.203-1.119 3.343-0.637 1.938-1.279 3.891-1.998 5.785l0.463-2.086c-2.326 1.328-5.094 1.332-7.381 2.001 2.027 1.751 5.807-0.576 6.287 1.669-1.023 2.468-2.229 4.787-3.77 6.789l0.197-0.793c-0.654-1.938-2.283-6.519-4.352-6.953 2.182-1.59 4.201-3.444 6.057-5.463 0.08 0.274 0.178 0.547 0.295 0.815-0.063-0.141 0.01-0.637 0.137-1.29 2.377-2.654 4.482-5.562 6.311-8.479 0.307-0.491 0.645-1.026 0.992-1.589-0.696 2.111-1.404 4.197-2.119 6.251zm5.25-16.801c-0.377 0.563-0.719 1.145-1.041 1.734-0.406-2.348-1.797-5.121-1.943-7.459 0.354-0.475 0.701-0.948 1.041-1.423 0.631-0.882 1.35-1.796 2.107-2.764 0.813-1.038 1.664-2.121 2.469-3.246-0.586 4.503-1.518 8.882-2.633 13.158z"/>
	<path d="m581.8 67.398c-1.762 0-3.396-0.24-4.861-0.714-4.41-1.429-5.686-4.551-6.172-7.616-0.322-0.168-0.557-0.356-0.74-0.505-0.184-0.147-0.27-0.216-0.42-0.278l0.57-2.887h1.35l0.313 0.153c0.443 0.22 1.014 0.33 1.693 0.33 3.5 0 8.68-2.792 12.105-4.64 0.549-0.295 1.055-0.567 1.508-0.804 7.371-3.854 14.477-7.765 20.361-13.194l2.641-2.436-0.123 3.59c-0.26 7.496-3.076 17.963-10.17 22.789-4.207 2.866-11.463 6.212-18.055 6.212zm-8.021-8.519c0.512 2.823 1.658 4.166 4.084 4.952 1.164 0.377 2.488 0.567 3.938 0.567 5.91 0 12.512-3.065 16.369-5.69 5.133-3.493 7.697-10.614 8.547-16.822-5.51 4.44-11.75 7.852-18.18 11.213-0.443 0.23-0.939 0.497-1.473 0.786-3.623 1.952-9.061 4.883-13.285 4.994z"/>
	<path d="m519.51 58.564c-0.662 3.372 25.727 2.061 29.709-1.215-1.951 5.018-5.912 9.184-10.639 11.95-4.313 2.525-12.479 2.886-16.395-0.354-2.695-2.229-1.965-4.984-4.01-7.383l1.335-2.998z" fill="#F1F2F2"/>
	<path d="m530.23 72.785c-3.713 0-6.908-0.952-9-2.682-1.836-1.52-2.377-3.233-2.854-4.746-0.336-1.063-0.627-1.982-1.34-2.819l-0.613-0.72 1.717-3.863 2.844 0.898c0.068-0.354-0.104-0.661-0.209-0.746 0.4 0.32 2.609 0.931 8.092 0.931 8.191 0 17.621-1.384 19.398-2.847l4.43-3.642-2.076 5.343c-1.98 5.092-5.984 9.603-11.279 12.701-2.378 1.394-5.698 2.192-9.11 2.192zm-10.326-11.413c0.691 1.055 1.027 2.119 1.332 3.082 0.42 1.332 0.752 2.384 1.904 3.337 1.533 1.269 4.115 1.994 7.09 1.994 2.852 0 5.689-0.665 7.592-1.778 3.469-2.031 6.309-4.724 8.258-7.782-4.777 1.239-12.1 1.813-17.215 1.813-4.967 0-7.492-0.465-8.828-0.965l-0.133 0.299z"/>
	<path d="m576.51 57.231c-2.576 8.188 11.135 2.441 13.625-0.243 1.145-1.234 4.834-5.441 2.873-7.178-1.725-1.527-4.773 2.334-6.266 3.189-2.604 1.495-6.076 3.324-9.133 3.229 0.289-0.045 0.574-0.015 0.867-0.065-0.354-0.595-0.801-0.5-1.301-0.934l-0.665 2.002z" fill="#B33E49"/>
	<path d="m579.18 62.963c-2.168 0-3.254-0.859-3.783-1.583-0.82-1.117-0.928-2.664-0.318-4.599l1.387-4.155 1.695 1.475c0.037 0.03 0.086 0.056 0.221 0.116 0.188 0.085 0.441 0.201 0.707 0.406 2.238-0.379 4.713-1.663 6.906-2.923 0.285-0.163 0.803-0.619 1.305-1.061 1.428-1.259 3.049-2.684 4.775-2.684 0.721 0 1.387 0.253 1.926 0.73 0.652 0.578 1.021 1.357 1.066 2.257 0.111 2.297-2.021 5.107-3.832 7.063-1.775 1.915-8.01 4.958-12.055 4.958zm-1.258-5.23c-0.322 1.04-0.27 1.651-0.105 1.872 0.162 0.224 0.674 0.356 1.361 0.356 3.24 0 8.666-2.713 9.855-3.994 2.146-2.319 3.072-4.12 3.035-4.876-6e-3 -0.112-0.027-0.133-0.059-0.158-0.531 0.022-2.018 1.33-2.73 1.958-0.668 0.588-1.244 1.096-1.791 1.409-2.929 1.684-6.351 3.403-9.566 3.433z"/>
	<path d="m575.7 45.37c-3.754 3.983-8.529 5.597-12.484 9.12 3.762 1.322 7.375 0.444 11.113-0.515 3.725-0.956 7.018-0.835 7.855-4.651 0.93-4.234 1.205-6.74 4.875-9.943 2.85-2.489 6.051-4.489 8.719-7.225 3.186-3.262 5.584-8.2 9.07-10.966 1.705 1.527 1.436 4.43 2.783 6.396 1.131 1.648 3.012 3.688 4.877 4.49 2.199 0.948 15.848-2.682 13.717-6.484-0.305-0.543-8.521-0.298-9.566-0.383-2.145-0.174-3.869-0.063-5.609-1.514-1.691-1.413-2.08-4.874-4.031-5.866-4.25-2.162-10.326 9.365-13.146 11.923-5.917 5.371-12.654 9.758-18.173 15.618z" fill="#71535C"/>
	<path d="m567.28 56.662c-1.623 0-3.115-0.248-4.563-0.757l-2.398-0.844 1.896-1.691c1.863-1.659 3.879-2.905 5.828-4.11 2.375-1.469 4.619-2.854 6.564-4.918 3.377-3.586 7.223-6.649 10.939-9.611 2.447-1.949 4.977-3.965 7.314-6.088 0.697-0.634 1.773-2.105 2.914-3.665 3.055-4.18 6.52-8.916 10.119-8.916 0.633 0 1.236 0.146 1.801 0.432 1.523 0.774 2.275 2.379 2.939 3.795 0.424 0.898 0.859 1.827 1.373 2.257 1.117 0.932 2.207 1 3.859 1.106 0.295 0.019 0.598 0.038 0.91 0.063 0.18 0.016 0.592 0.017 1.143 0.017l2.479-6e-3c5.938 0 6.607 0.2 7.133 1.134 0.578 1.033 0.555 2.185-0.066 3.245-2.018 3.441-10.727 5.626-13.861 5.626-0.719 0-1.254-0.087-1.689-0.275-2.732-1.177-4.916-4.139-5.52-5.019-0.746-1.087-1.076-2.333-1.367-3.433-0.146-0.562-0.285-1.085-0.461-1.538-1.336 1.361-2.563 3.074-3.756 4.744-1.236 1.729-2.516 3.515-3.961 4.995-1.68 1.72-3.549 3.154-5.355 4.542-1.154 0.886-2.348 1.802-3.449 2.765-2.998 2.618-3.42 4.579-4.182 8.141l-0.215 0.995c-0.895 4.071-4.16 4.753-7.041 5.354-0.615 0.128-1.256 0.261-1.908 0.429-2.253 0.576-4.806 1.231-7.419 1.231zm-0.533-3.012c2.355 0.104 4.959-0.551 7.207-1.128 0.699-0.181 1.383-0.322 2.041-0.46 2.943-0.613 4.266-0.974 4.723-3.061l0.213-0.979c0.809-3.772 1.393-6.497 5.141-9.771 1.174-1.024 2.406-1.971 3.598-2.886 1.803-1.384 3.506-2.69 5.035-4.257 0.326-0.334 0.645-0.688 0.959-1.059-0.275 0.313-0.535 0.588-0.783 0.813-2.41 2.188-4.979 4.233-7.461 6.213-3.637 2.897-7.396 5.893-10.627 9.323-2.215 2.351-4.734 3.907-7.168 5.413-0.992 0.612-1.953 1.206-2.878 1.839zm46.351-22.954c0.012 0 0.164 0.032 0.506 0.032 2.955 0 9.59-2.027 11.113-3.914-0.736-0.049-2.033-0.091-4.316-0.091l-2.479 6e-3c-0.67 0-1.17-9e-3 -1.387-0.025-0.295-0.022-0.58-0.042-0.859-0.061-1.828-0.117-3.719-0.238-5.588-1.796-1.025-0.855-1.605-2.092-2.168-3.286-0.48-1.026-0.979-2.088-1.584-2.396-0.391-0.2-0.84-0.107-1.348 0.138l0.857 0.771c1.283 1.149 1.707 2.75 2.08 4.162 0.252 0.948 0.488 1.844 0.939 2.502 0.963 1.397 2.648 3.274 4.234 3.958-2e-3 1e-3 -2e-3 0 0 0z"/>
	<path d="m561.75 59.807c0.729-0.193 1.299-0.47 1.594-0.859 2.104-2.781-13.508-8.482-15.59-9.728-5.393-3.221-9.967-3.961-15.992-5.518-2.334-0.604-5.34-1.155-7.092-3.024-1.287-1.371-1.418-3.32-2.512-4.814-1.412-1.929-6.061-6.444-8.271-6.174-0.414 7.676 1.494 15.463 0.998 23.165 2.963-0.723 2.064-9.329 2.666-11.905 2.209 0.146 5.457 5.083 7.953 6.32 3.184 1.575 6.49 2.967 9.789 4.229 3.572 1.369 7.676 1.926 10.781 4.229 3.08 2.282 3.506 4.44 7.668 4.444 1.485 3e-3 5.602 0.273 8.008-0.365z" fill="#71535C"/>
	<path d="m557.04 61.731c-0.822 0-1.598-0.021-2.238-0.037-0.422-0.011-0.779-0.021-1.051-0.021-3.531-3e-3 -4.973-1.418-6.498-2.916-0.604-0.592-1.227-1.204-2.063-1.823-1.895-1.403-4.252-2.103-6.748-2.841-1.215-0.358-2.473-0.73-3.678-1.192-3.746-1.436-6.99-2.837-9.918-4.287-1.324-0.656-2.676-2.025-3.98-3.351-0.566-0.572-1.344-1.36-2.037-1.957-0.02 0.372-0.033 0.77-0.047 1.172-0.158 4.243-0.338 9.056-3.533 9.834l-1.982 0.482 0.131-2.037c0.244-3.802-0.127-7.748-0.484-11.563-0.355-3.789-0.725-7.706-0.516-11.586l0.068-1.255 1.248-0.153c0.123-0.015 0.25-0.022 0.379-0.022 3.277 0 8.188 5.302 9.285 6.801 0.611 0.835 0.965 1.749 1.277 2.555 0.326 0.849 0.611 1.581 1.115 2.12 1.244 1.325 3.51 1.887 5.51 2.381l0.865 0.218c1.008 0.26 1.973 0.497 2.906 0.728 4.723 1.159 8.799 2.16 13.48 4.955 0.398 0.238 1.691 0.804 3.063 1.4 8.361 3.65 12.725 5.954 13.367 8.411 0.195 0.747 0.049 1.495-0.412 2.106-0.488 0.645-1.275 1.104-2.404 1.403-1.205 0.32-2.875 0.475-5.105 0.475zm-40.651-22.363l1.271 0.084c1.805 0.12 3.521 1.861 5.342 3.705 1.133 1.146 2.305 2.335 3.178 2.769 2.842 1.407 6.002 2.772 9.66 4.175 1.096 0.42 2.24 0.759 3.453 1.116 2.639 0.78 5.365 1.589 7.684 3.308 1.006 0.744 1.734 1.461 2.379 2.094 1.393 1.368 2.092 2.055 4.398 2.057 0.289 0 0.674 0.011 1.127 0.021 0.617 0.017 1.365 0.036 2.16 0.036 1.938 0 3.395-0.126 4.334-0.375 0.209-0.057 0.369-0.111 0.486-0.16-1.439-1.735-8.906-4.995-11.469-6.113-1.811-0.79-2.861-1.254-3.398-1.574-4.295-2.563-7.984-3.471-12.656-4.617-0.947-0.232-1.924-0.473-2.941-0.735l-0.836-0.21c-2.283-0.564-5.127-1.27-6.977-3.24-0.904-0.965-1.342-2.093-1.729-3.089-0.27-0.695-0.521-1.351-0.898-1.867-1.242-1.695-3.883-4.091-5.619-5.097-0.021 3.069 0.275 6.209 0.563 9.261 0.018 0.192 0.035 0.384 0.055 0.576 0.037-0.326 0.084-0.621 0.145-0.881l0.288-1.244z"/>
	<path d="m538.72 64.885c0.355-1.021 0.314-2.154-0.34-3.201-2.115-3.385-8.381-1.554-11.488-1.401-1.465 0.072 1.871 6.512 2.777 7.072 1.695 1.049 4.727 1.236 6.537 0.336 1.149-0.574 2.1-1.613 2.514-2.806z" fill="#B33E49"/>
	<path d="m533.37 69.766c-1.688 0-3.324-0.414-4.492-1.138-1.197-0.741-4.311-6.362-3.777-8.422 0.213-0.824 0.887-1.383 1.717-1.424 0.596-0.029 1.379-0.135 2.209-0.246 1.344-0.181 2.867-0.386 4.361-0.386 3.064 0 5.111 0.896 6.264 2.735 0.848 1.356 1.02 2.951 0.484 4.49-0.533 1.534-1.752 2.9-3.262 3.654-1.221 0.61-2.579 0.737-3.504 0.737zm-2.84-3.643c0.689 0.397 1.768 0.644 2.84 0.644 0.854 0 1.621-0.148 2.166-0.419 0.811-0.404 1.488-1.153 1.766-1.954 0.238-0.685 0.172-1.327-0.195-1.915-0.355-0.569-1.127-1.326-3.719-1.326-1.293 0-2.711 0.189-3.963 0.358-0.418 0.057-0.826 0.11-1.215 0.157 0.476 1.411 1.738 3.842 2.32 4.455z"/>
	<path d="m529.84 60.898c-1.17 2.447 3.756 2.849 4.57 1.276 1.469-2.836-4.369-2.041-5.543-1.525 0.131 0.354 0.383 0.228 0.639 0.582"/>
	<path d="m532.15 64.618c-0.82 0-1.643-0.172-2.314-0.508-0.896-0.446-1.457-1.157-1.623-1.977-0.254-0.17-0.564-0.458-0.754-0.963l-0.494-1.327 1.297-0.568c0.82-0.359 5.486-1.422 7.232 0.438 0.363 0.389 1.115 1.473 0.246 3.151-0.616 1.188-2.104 1.754-3.59 1.754z"/>
	<path d="m581.17 55.231c-0.742 0.48-0.957 1.388-0.617 2.616 1.947 0.18 3.904-1.42 3.566-3.566-2.449-0.231-3 2.856-5.617 2.283"/>
	<path d="m580.86 59.361c-0.146 0-0.293-7e-3 -0.439-0.021l-1.031-0.096-0.275-0.997c-0.012-0.038-0.021-0.076-0.031-0.113-0.281-4e-3 -0.58-0.036-0.895-0.105l0.643-2.93c0.178 0.038 0.326 0.048 0.471 0.021 0.324-0.6 0.771-0.962 1.059-1.147l0.197 0.305c0.82-0.717 1.949-1.659 3.709-1.49l1.16 0.109 0.182 1.149c0.217 1.374-0.207 2.746-1.162 3.766-0.93 0.988-2.244 1.549-3.588 1.549z"/>
	<path d="m649.14 142.01c8.563-4.937 20.52-12.201 28.896-14.123-16.537 12.576-24.564 35.84-47.893 35.664-28.913-0.216 11.142-17.012 18.997-21.541z" fill="#9C4E43"/>
	<path d="m506.17 161.23c3.861 14.541 61.914 31.282 67.869 13.146-11.605-3.813-25.418 3.005-37.689 0.842-6.891-1.214-10.992-3.154-16.521-7.79-3.699-3.1-11.092-10.768-11.658-8.198l-2.001 2z" fill="#9C4E43"/>
	<path d="m679.17 146.23c-6.506 3.828-8.482 12.895-12.941 18.91-4.65 6.274-10.344 11.51-16.648 16.09-6.139 4.459-27.129 12.313-25.258 20.849 7.457 0.11 15.107-2.526 22.754-2.836 8.104-0.329 17.092 1.459 22.674-4.347 10.346-10.761 6.869-33.556 10.422-46.666l-1.003-2z" fill="#9C4E43"/>
	<path d="m483.17 147.23c-8.27 0.586-16.838 16.352-23.469 21.473-7.205 5.563-15.975 10.176-23.455 14.301 17.492 3.09 37.516-5.154 54.551 2.32-5.041-5.574-9.445-21.486-8.627-29.094l1-9z" fill="#9C4E43"/>
	<path d="m580.17 129.23c1.752-3.985 24.848-11.286 27.85-2.254-8.623 4.194-21.678-1.537-27.85 5.254v-3z" fill="#9C4E43"/>
		<path d="m557.51 67.898c-11.508 11.293-24.57 23.02-26.484 39.845-0.801 7.028 0.051 13.04 2.512 19.608 1.422 3.788 2.146 11.594 6.26 13.465 6.137 2.791 10.58-5.476 11.264-10.217 0.783-5.416-0.824-10.736 5.006-13.479 5.148-2.422 8.516-3.086 12.078-8.004 2.592-3.577 7.504-9.637 6.355-14.434-0.896-3.735-5.424-6.261-7.686-9.187-3.625-4.689-5.248-10.184-6.305-15.934l-3-1.663z" fill="#C26558"/>
		<path d="m576.16 94.302c-0.311-1.944-1.537-1.725-2.572 1.516-1.35 4.228-3.236 7.767-5.924 11.417l-0.736 1.003c-2.641 3.646-5.047 4.689-8.689 6.271-0.881 0.383-1.813 0.786-2.813 1.257-5.252 2.471-5.426 6.961-5.578 10.923-0.047 1.216-0.096 2.475-0.271 3.698-0.559 3.87-3.689 9.493-7.324 9.493-0.594 0-1.211-0.145-1.834-0.428-2.391-1.087-3.498-5.406-4.389-8.876-0.354-1.383-0.689-2.689-1.088-3.75-2.43-6.479-3.178-12.313-2.428-18.912 0.932-8.177 4.828-15.495 9.844-21.892 3.627-4.626 7.469-11.092 13.125-13.495 0.305-0.13 0.582-0.231 0.844-0.317 0.172-0.436 0.363-0.861 0.551-1.272 0.58-1.272 1.229-2.541 2.021-3.704-1.453-0.294-3.107 0.255-4.646 1.756-11.242 10.964-22.865 22.301-24.717 38.587-0.807 7.096-6e-3 13.357 2.598 20.304 0.342 0.91 0.656 2.142 0.99 3.442 1.051 4.09 2.355 9.18 6.053 10.861 1.018 0.462 2.053 0.696 3.076 0.696 6.043 0 9.688-7.857 10.293-12.063 0.199-1.381 0.252-2.719 0.301-4.014 0.164-4.232 0.424-6.707 3.859-8.322 0.969-0.456 1.873-0.849 2.729-1.22 3.801-1.647 6.803-2.95 9.926-7.263l0.721-0.982c2.779-3.773 5.604-7.701 6.09-12.491 0.089-0.911 0.078-1.658-0.012-2.223z"/>
		<path d="m542.17 90.23c-0.736 0.313-1.182 1.43-2.828 1.171-2.482 5.493-8.801 22.632-0.346 24.701 0.342-5.489 0.014-11.213 0.348-16.698 2.943-1.39 5.152-3.789 6.826-6.174l-4-3z" fill="#DE7C6F"/>
		<polygon points="437.04 182.91 412.84 179.84 435.99 176.98 460.11 179.76" fill="#F1F2F2"/>
		<polygon points="437.29 182.94 463.95 186.31 486.81 182.84 460.35 179.79"/>
		<polygon points="493.14 189.99 463.68 186.27 486.53 182.81 515.63 186.17" fill="#F1F2F2"/>
		<polygon points="493.45 190.03 526.27 194.18 548.14 189.92 515.93 186.2"/>
		<polygon points="650.76 209.91 704.4 216.69 719.82 209.73 668.68 203.83"/>
		<polygon points="650.76 209.91 603.88 203.99 623.61 198.63 668.68 203.83" fill="#F1F2F2"/>
		<polygon points="562.2 198.72 603.45 203.93 623.19 198.58 583.21 193.97"/>
		<polygon points="562.59 198.77 525.92 194.14 547.8 189.88 583.58 194.01" fill="#F1F2F2"/>
		<polygon points="437.29 182.94 413.07 179.88 387.63 183.03 411.82 186.41"/>
		<polygon points="437.04 182.91 463.68 186.27 438.32 190.11 411.58 186.37" fill="#F1F2F2"/>
		<polygon points="493.45 190.03 463.95 186.31 438.6 190.15 468.38 194.3"/>
		<polygon points="493.14 189.99 525.92 194.14 501.36 198.91 468.06 194.26" fill="#F1F2F2"/>
		<polygon points="650.76 209.91 704.4 216.69 686.51 224.77 630.16 216.9" fill="#F1F2F2"/>
		<polygon points="650.26 209.85 603.45 203.93 580.97 210.03 629.64 216.83"/>
		<polygon points="562.59 198.77 603.88 203.99 581.42 210.1 538.85 204.15" fill="#F1F2F2"/>
		<polygon points="562.2 198.72 525.58 194.09 501 198.86 538.46 204.09"/>
		<polygon points="383.57 190.26 359.55 186.51 328.37 190.38 352.04 194.56"/>
		<polygon points="383.32 190.23 410.02 194.39 378.25 199.2 351.79 194.52" fill="#F1F2F2"/>
		<polygon points="440.22 199.11 410.3 194.44 378.52 199.25 408.38 204.53"/>
		<polygon points="439.9 199.05 473.58 204.31 441.93 210.47 408.06 204.48" fill="#F1F2F2"/>
		<polygon points="606.24 225.02 665.49 234.27 640.44 245.58 578.14 234.56" fill="#F1F2F2"/>
		<polygon points="605.7 224.93 555.14 217.04 525.13 225.18 577.57 234.46"/>
		<polygon points="511.81 210.28 555.6 217.12 525.61 225.27 480.73 217.33" fill="#F1F2F2"/>
		<polygon points="511.41 210.22 473.23 204.26 441.58 210.4 480.32 217.26"/>
		<polygon points="383.32 190.23 359.32 186.48 387.4 183 411.58 186.37" fill="#F1F2F2"/>
		<polygon points="383.57 190.26 410.3 194.44 438.6 190.15 411.82 186.41"/>
		<polygon points="439.9 199.05 410.02 194.39 438.32 190.11 468.06 194.26" fill="#F1F2F2"/>
		<polygon points="440.22 199.11 473.94 204.37 501.7 198.96 468.38 194.3"/>
		<polygon points="606.24 225.02 665.49 234.27 686.51 224.77 630.16 216.9"/>
		<polygon points="606.24 225.02 555.6 217.12 581.42 210.1 630.16 216.9" fill="#F1F2F2"/>
		<polygon points="511.41 210.22 555.14 217.04 580.97 210.03 538.46 204.09"/>
		<polygon points="511.81 210.28 473.58 204.31 501.36 198.91 538.85 204.15" fill="#F1F2F2"/>
		<polygon points="316.37 199.35 293.36 194.65 328.15 190.34 351.79 194.52" fill="#F1F2F2"/>
		<polygon points="316.61 199.4 342.58 204.7 378.52 199.25 352.04 194.56"/>
		<polygon points="371.77 210.65 342.31 204.64 378.25 199.2 408.06 204.48" fill="#F1F2F2"/>
		<polygon points="371.46 210.59 405.18 217.48 441.58 210.4 407.75 204.42"/>
		<polygon points="544.63 245.94 610.08 259.3 640.44 245.58 578.14 234.56"/>
		<polygon points="544.63 245.94 490.35 234.86 525.61 225.27 578.14 234.56" fill="#F1F2F2"/>
		<polygon points="444.19 225.44 489.86 234.76 525.13 225.18 480.32 217.26"/>
		<polygon points="444.61 225.52 405.53 217.54 441.93 210.47 480.73 217.33" fill="#F1F2F2"/>
		<polygon points="316.61 199.4 293.58 194.69 254.48 199.54 276.54 204.86"/>
		<polygon points="316.37 199.35 342.31 204.64 301.33 210.84 276.31 204.8" fill="#F1F2F2"/>
		<polygon points="371.46 210.59 342.04 204.59 301.07 210.78 329.72 217.69"/>
		<polygon points="371.77 210.65 405.53 217.54 363.23 225.77 330.02 217.76" fill="#F1F2F2"/>
		<polygon points="544.63 245.94 610.08 259.3 572.53 276.26 504 259.73" fill="#F1F2F2"/>
		<polygon points="544.63 245.94 490.35 234.86 448.29 246.29 504 259.73"/>
		<polygon points="444.61 225.52 490.35 234.86 448.29 246.29 402.12 235.15" fill="#F1F2F2"/>
		<polygon points="444.19 225.44 405.18 217.48 362.87 225.69 401.7 235.05"/>
		<polygon points="230.83 211.1 210.25 205.03 159.78 211.28 178.22 218.27"/>
		<polygon points="230.61 211.03 254.18 217.98 199.35 226.28 178.02 218.2" fill="#F1F2F2"/>
		<polygon points="281.19 225.94 253.93 217.9 199.12 226.2 224.07 235.65"/>
		<polygon points="281.48 226.02 313.45 235.45 254.03 247.01 224.34 235.75" fill="#F1F2F2"/>
		<polygon points="453.71 276.8 524.89 297.79 462.45 326 389.85 298.48" fill="#F1F2F2"/>
		<polygon points="453.71 276.8 397.27 260.16 334.08 277.35 389.85 298.48"/>
		<polygon points="351.43 246.65 397.27 260.16 334.08 277.35 289.9 260.6" fill="#F1F2F2"/>
		<polygon points="351.01 246.53 313.11 235.35 253.72 246.89 289.5 260.46"/>
		<polygon points="230.61 211.03 210.06 204.97 254.28 199.49 276.31 204.8" fill="#F1F2F2"/>
		<polygon points="230.83 211.1 254.44 218.05 301.6 210.91 276.54 204.86"/>
		<polygon points="281.48 226.02 254.18 217.98 301.33 210.84 330.02 217.76" fill="#F1F2F2"/>
		<polygon points="281.19 225.94 313.11 235.35 362.87 225.69 329.72 217.69"/>
		<polygon points="453.71 276.8 524.89 297.79 572.53 276.26 504 259.73"/>
		<polygon points="453.71 276.8 397.27 260.16 448.29 246.29 504 259.73" fill="#F1F2F2"/>
		<polygon points="351.43 246.65 397.27 260.16 448.29 246.29 402.12 235.15"/>
		<polygon points="351.43 246.65 313.45 235.45 363.23 225.77 402.12 235.15" fill="#F1F2F2"/>
	<path d="m688.03 148.2c0.031 0.094 0.059 0.176 0.08 0.244 0.945 2.948-0.336 3.801-2.961 3.916-3.326 0.146-3.813 0.465-4.906 3.244-1.852 4.701-1.082 9.764-1.93 14.607-0.578 3.298-1.311 6.608-1.791 9.934-0.191 1.315 0.467 3.065 2.201 3.186 2.885 0.193 2.24-2.334 2.082-3.771-0.139-1.231 0.369-2.412 0.814-3.566 2.924 0.305 2.818 6.485 3.002 8.466 0.506 5.435 0.98 10.36 0.852 15.838-0.082 3.381 0.436 4.091-1.957 6.432-1.506 1.474-4.051 2.118-3.484 4.464 0.26 1.084 5.787-1.151 6.264-1.496 1.801-1.299 2.063-2.316 4.803-2.648-1.279 0.148-1.059-10.926-1.043-11.809 0.059-3.176 0.514-6.33 0.309-9.529-0.104-1.59-0.199-2.602 1.221-3.754 1.059 3.353 1.908 7.189 2.064 10.676 0.186 4.195 0.854 8.451 0.055 12.632-0.383 2.017-5.494 8.939 0.613 7.62 5.797-1.25 4.064-10.836 3.791-14.399-0.41-5.348 0.635-10.666 0.609-16.025-6e-3 -0.686-0.766-9.209 1.582-6.746 0.688 0.722 0.092 4.796-0.18 5.707 3.178 1.041 3.668-1.41 3.699-3.632 0.041-3.085 0.191-6.206 0.17-9.286-0.02-2.568 0.4-5.13 0.465-7.698 0.049-1.972 1.066-5.115-1.447-6.753-1.871-1.211-6.188-0.235-7.393-2.254-0.949-1.598 0.682-2.985 1.299-4.19 0.607-1.186 0.854-3.742 1.666-4.428 0.35 0.229 0.576 0.121 0.885 0.255 0.844-5.584-1.227-9.626-6.16-10.21-5.131-0.605-8.182 4.472-8.008 10.138 1.711-0.241 1.146 0.673 1.6 1.569 0.235 0.461 0.849 2.369 1.134 3.266z"/>
	<path d="m413.12 145.75c0.016 0.056 0.031 0.104 0.043 0.145 0.537 1.741-0.189 2.246-1.68 2.313-1.889 0.086-2.166 0.274-2.785 1.916-1.049 2.775-0.613 5.768-1.096 8.629-0.328 1.947-0.742 3.902-1.018 5.866-0.107 0.778 0.266 1.813 1.252 1.881 1.637 0.114 1.271-1.377 1.18-2.227-0.078-0.728 0.211-1.425 0.465-2.107 1.658 0.182 1.598 3.831 1.703 5.002 0.285 3.208 0.557 6.12 0.482 9.354-0.047 1.996 0.248 2.414-1.111 3.797-0.854 0.871-2.299 1.252-1.979 2.637 0.148 0.642 3.287-0.68 3.555-0.882 1.023-0.768 1.172-1.368 2.729-1.563-0.727 0.087-0.602-6.453-0.594-6.977 0.033-1.875 0.291-3.74 0.176-5.628-0.059-0.94-0.111-1.538 0.693-2.217 0.602 1.979 1.082 4.245 1.172 6.304 0.105 2.48 0.482 4.994 0.029 7.461-0.217 1.191-3.119 5.281 0.35 4.502 3.289-0.74 2.307-6.399 2.15-8.506-0.232-3.159 0.359-6.301 0.346-9.465-2e-3 -0.404-0.434-5.439 0.898-3.986 0.391 0.428 0.051 2.835-0.102 3.372 1.803 0.614 2.08-0.833 2.1-2.145 0.021-1.822 0.109-3.665 0.096-5.485-0.01-1.518 0.23-3.03 0.266-4.547 0.025-1.164 0.604-3.022-0.822-3.988-1.063-0.717-3.512-0.141-4.195-1.332-0.539-0.942 0.387-1.764 0.736-2.477 0.346-0.698 0.484-2.209 0.945-2.614 0.199 0.136 0.328 0.072 0.504 0.151 0.477-3.3-0.697-5.686-3.498-6.031-2.912-0.357-4.645 2.641-4.545 5.988 0.973-0.144 0.65 0.396 0.906 0.926 0.137 0.276 0.485 1.403 0.649 1.933z"/>
	<path d="m570.94 155.87c1.246 3.167 0.096 4.564-2.086 4.714-2.451 0.167-2.811 0.529-3.615 3.694-1.363 5.354-0.795 11.122-1.422 16.641-0.426 3.757-0.965 7.525-1.32 11.314-0.141 1.499 0.346 3.489 1.623 3.627 2.125 0.219 1.652-2.658 1.533-4.295-0.102-1.402 0.273-2.747 0.604-4.063 2.152 0.351 2.076 7.389 2.209 9.646 0.373 6.188 0.727 11.799 0.629 18.037-0.061 3.852 0.32 4.658-1.441 7.325-1.107 1.679-2.984 2.412-2.568 5.083 0.193 1.236 4.266-1.309 4.615-1.7 1.326-1.479 1.521-2.641 3.539-3.019-0.941 0.169-0.779-12.444-0.768-13.452 0.041-3.617 0.377-7.213 0.227-10.852-0.076-1.813-0.146-2.964 0.9-4.275 0.775 3.817 1.402 8.188 1.52 12.157 0.137 4.782 0.629 9.628 0.041 14.388-0.283 2.295-4.051 10.186 0.451 8.682 4.27-1.424 2.994-12.344 2.793-16.401-0.303-6.094 0.467-12.152 0.447-18.253-2e-3 -0.78-0.563-10.491 1.168-7.686 0.504 0.821 0.064 5.464-0.133 6.499 2.342 1.187 2.703-1.605 2.727-4.136 0.029-3.514 0.141-7.067 0.125-10.579-0.014-2.925 0.297-5.841 0.342-8.767 0.037-2.246 0.787-5.828-1.066-7.693-1.379-1.378-4.559-0.268-5.447-2.563-0.863-2.243 1.672-5.438 1.932-7.666 0.41-3.559-0.262-8.418-3.633-8.753-2.912-0.291-5.426 3.931-5.285 7.604 0.092 2.362 0.639 2.937 1.332 4.659 5e-3 0.029 0.017 0.056 0.027 0.083z"/>
	<path d="m505.4 183.52c-0.057 0.617-0.115 1.21-0.158 1.748-0.236 2.983-2.727 9.535-1.289 12.292 0.574 1.102 1.637 0.695 2.082 2.306 0.354 1.287-0.023 2.366-0.561 3.482-0.338 0.707-1.51 1.758-0.611 2.44 1.688 1.291 3.113-2.998 2.797-4.366-0.455-1.964-0.244-1.798 0.58-2.929 0.58-0.795 2.357-2.223 2.834-0.915 0.57 1.571-1.023 6.392-1.287 8.136 2.824 0.117 2.133-1.788 2.123-4.521-0.01-2.98 0.305-3.656 2.52-4.842 1.344-0.721-2.76-17.326-0.967-20.962 0.227-0.01 0.344 0.146 0.479 0.378 0.373 0.639 0.049 4.25-0.1 5.055 1.73 0.924 2-1.248 2.018-3.217 0.021-2.732 0.104-5.496 0.092-8.229-0.016-3.93 0.719-9.604-2.02-12.658-2.361-2.64-2.826-1.784-1.816-5.928 0.521-2.146 0.766-10.385-2.455-9.502-3.098 0.851-3.119 6.683-2.604 9.594 0.033 0.184 0.068 0.365 0.105 0.555 0.701 3.548-2.764 3.706-3.959 6.053-1.779 3.493-0.818 9.462-1.242 13.406-0.314 2.922-0.715 5.854-0.977 8.801-0.105 1.163 0.252 2.705 1.189 2.821 2.354 0.289-0.158-7.984 3.436-8.642 0.125 3.21 0.076 6.45-0.209 9.644z"/>
	<path d="m535.18 139.46c1.055 2.732 0.078 3.939-1.77 4.068-2.074 0.145-2.379 0.456-3.063 3.188-1.152 4.62-0.672 9.598-1.203 14.359-0.361 3.242-0.816 6.494-1.117 9.764-0.119 1.293 0.293 3.014 1.375 3.129 2.66 0.29 0.313-6.005 2.047-5.131 0.828 0.416 0.404 1.238 0.559 2.118 0.283 1.632-0.061 3.323 0.1 4.938 2.646-1.337 1.299 3.015 1.275 4.527-0.049 3.398 0.283 6.813 0.232 10.224-0.053 3.322 0.27 4.02-1.223 6.321-0.938 1.447-2.527 2.081-2.176 4.388 0.164 1.065 3.613-1.129 3.908-1.47 1.125-1.274 1.289-2.276 2.998-2.604-0.797 0.145-0.66-10.738-0.65-11.61 0.039-3.514-0.143-6.88 0.074-10.39 0.539 0.063 1.332 0.169 1.941 0.281 0.109 2.515 0.154 5.027 0.227 7.548 0.113 4.127 0.531 8.308 0.035 12.415-0.24 1.979-3.432 8.788 0.381 7.492 3.617-1.229 2.535-10.652 2.365-14.154-0.18-3.696 0.031-7.392 0.242-11.078 0.158-2.764-0.324-7.277 0.717-9.615 0.498 0.873-0.346 6.369 1.1 6.035 2.271-0.525 1.619-13.054 1.611-14.813-0.01-2.525 0.252-5.041 0.291-7.566 0.029-1.938 0.664-5.027-0.906-6.637-1.166-1.19-3.857-0.231-4.611-2.214-1.686-4.463 5.076-8.067 4.102-11.135-0.461-1.438-3.051-2.377-4.133-2.947 0.129-1.862-0.262-4.317-1.854-3.022-0.857 0.701-1.152 3.246-2.131 4.166-2.025 1.904-3.367 0.375-2.719 3.387 0.348 1.604 1.27 4.195 1.945 5.971 0.012 0.021 0.02 0.045 0.031 0.067z"/>
	<path d="m401.81 168.16c1.056 2.759 0.079 3.976-1.769 4.104-2.075 0.146-2.379 0.463-3.062 3.221-1.153 4.663-0.674 9.688-1.205 14.495-0.359 3.273-0.815 6.559-1.115 9.857-0.12 1.306 0.292 3.04 1.373 3.159 1.8 0.191 1.397-2.314 1.299-3.741-0.086-1.222 0.23-2.394 0.511-3.54 1.824 0.307 1.758 6.438 1.87 8.403 0.317 5.391 0.615 10.278 0.534 15.714-0.054 3.355 0.271 4.06-1.224 6.383-0.938 1.46-2.526 2.101-2.175 4.426 0.163 1.078 3.612-1.139 3.909-1.48 1.123-1.286 1.288-2.299 2.997-2.628-0.797 0.146-0.66-10.841-0.649-11.719 0.034-3.151 0.318-6.284 0.19-9.453-0.063-1.58-0.123-2.584 0.763-3.728 0.658 3.326 1.188 7.133 1.287 10.592 0.115 4.167 0.531 8.39 0.035 12.534-0.24 1.999-3.432 8.873 0.381 7.563 3.617-1.238 2.535-10.751 2.365-14.287-0.256-5.311 0.396-10.587 0.379-15.9-2e-3 -0.682-0.477-9.141 0.99-6.695 0.426 0.716 0.055 4.759-0.113 5.661 1.982 1.034 2.289-1.398 2.311-3.603 0.023-3.063 0.117-6.158 0.104-9.216-0.01-2.55 0.252-5.09 0.291-7.641 0.029-1.954 0.664-5.074-0.904-6.7-1.168-1.201-3.859-0.232-4.613-2.233-0.73-1.954 1.416-4.737 1.637-6.678 0.346-3.1-0.223-7.333-3.078-7.626-2.465-0.254-4.593 3.424-4.474 6.625 0.075 2.058 0.538 2.557 1.127 4.061 9e-3 0.021 0.017 0.045 0.028 0.07z"/>
	<path d="m387.95 159.19c0.499 1.567 0.038 2.26-0.836 2.335-0.98 0.083-1.124 0.263-1.446 1.831-0.546 2.65-0.318 5.51-0.568 8.244-0.172 1.86-0.388 3.729-0.528 5.604-0.058 0.742 0.139 1.729 0.647 1.796 0.853 0.108 0.662-1.314 0.614-2.126-0.04-0.694 0.111-1.361 0.241-2.014 0.862 0.173 0.831 3.66 0.885 4.778 0.15 3.064 0.291 5.844 0.253 8.937-0.023 1.908 0.128 2.309-0.578 3.629-0.443 0.831-1.195 1.195-1.027 2.519 0.077 0.612 1.707-0.648 1.848-0.843 0.531-0.731 0.609-1.307 1.417-1.493-0.377 0.083-0.313-6.166-0.308-6.666 0.017-1.791 0.15-3.572 0.092-5.375-0.03-0.898-0.06-1.472 0.358-2.118 0.313 1.892 0.563 4.056 0.609 6.021 0.054 2.369 0.251 4.771 0.017 7.129-0.113 1.138-1.623 5.046 0.182 4.301 1.71-0.705 1.197-6.115 1.117-8.125-0.121-3.021 0.188-6.022 0.18-9.042 0-0.389-0.227-5.199 0.468-3.81 0.202 0.406 0.026 2.706-0.054 3.219 0.938 0.591 1.083-0.796 1.093-2.049 0.01-1.74 0.056-3.502 0.048-5.239-4e-3 -1.449 0.121-2.894 0.141-4.347 0.013-1.111 0.313-2.885-0.43-3.809-0.552-0.685-1.825-0.133-2.182-1.271-0.346-1.11 0.67-2.691 0.773-3.797 0.163-1.764-0.104-4.171-1.455-4.338-1.166-0.146-2.172 1.947-2.115 3.768 0.037 1.172 0.255 1.454 0.533 2.311 3e-3 0.013 6e-3 0.025 0.011 0.04z"/>
<g fill="#D1D3D4">
	<path d="m440.1 172.61c2e-3 0.396 0.059 0.754 0.189 1.053 0.896 2.039 4.26 1.502 5.732 2.603 1.818 1.356 1.203 6.561 1.488 8.729 0.572 4.389 0.389 9.075 0.252 13.488-0.068 2.268 0.268 5.634-0.656 7.769-0.686 0.182-2.82 0.644-3.314-0.044-0.684-0.951 0.902-1.703 0.986-2.483 0.133-1.22-0.561-1.787-1.209-2.798-1.344 1.918-1.199 4.523-1.197 6.804 6e-3 3.581-1.188 7.074-1.594 10.607-0.463 4.003 0.057 8.073 0.113 12.078 0.027 1.931-0.291 4.003 8e-3 5.914 0.449 2.913 1.014 1.509 3.113 1.521 3.037 0.018 1.396 1.928-0.51 2.451-1.77 0.488-3.684 0.958-5.516 1.157-1.895-3.725-1.068-9.774-1.502-13.871-0.365-3.444-0.588-6.928-0.387-10.391 0.027-0.458-0.135-5.504-0.082-5.579-1.568 2.246-0.162 4.972-0.162 7.441 0 3.222 0.266 6.461-0.264 9.65-0.127 0.768-0.83 8.328-0.541 8.244 0.322-0.088 0.639 0 0.967-0.139 1.682 3.092-1.898 3.002-4.516 2.877-0.395-0.066 0.355-10.495 0.396-11.396 0.293-6.241-0.451-12.446-0.434-18.699 4e-3 -1.446 0.381-7.454-1.637-6.996-0.635 1.46 0.201 2.938-0.066 4.437-3.412-0.27-1.895-4.102-1.82-6.166 0.088-2.514-0.24-5.041-0.229-7.559 0.012-2.996-0.287-5.986-0.332-8.982-0.035-2.301-0.76-5.967 1.031-7.881 1.498-1.586 4.428-0.408 5.381-2.896 0.918-2.391-1.508-4.264-1.814-6.354-0.354-2.414 1.113-4.817 3.1-5.701 7.038-3.114 4.993 6.944 5.026 11.112z"/>
	<path d="m461.38 199.58c0.732 3.93 7.426 3.894 9.566 5.412 2.844 2.018 1.883 9.754 2.328 12.979 0.896 6.525 0.605 13.492 0.393 20.054-0.107 3.371 0.42 8.378-1.025 11.552-1.07 0.269-4.41 0.954-5.184-0.066-1.07-1.415 1.412-2.531 1.543-3.691 0.207-1.814-0.875-2.658-1.893-4.16-2.098 2.852-1.875 6.727-1.871 10.114 0.01 5.325-1.855 10.521-2.494 15.771-0.721 5.952 0.09 12.004 0.182 17.958 0.043 2.868-0.455 5.949 8e-3 8.791 0.707 4.332 1.586 2.244 4.871 2.262 4.748 0.023 2.184 2.865-0.797 3.646-2.766 0.725-5.76 1.424-8.625 1.719-2.959-5.537-1.668-14.531-2.346-20.62-0.574-5.124-0.92-10.302-0.604-15.449 0.041-0.681-0.213-8.183-0.131-8.296-2.453 3.341-0.254 7.393-0.254 11.065 0 4.788 0.414 9.604-0.412 14.35-0.199 1.139-1.297 12.381-0.846 12.258 0.502-0.136 0.998-3e-3 1.512-0.21 2.627 4.597-2.971 4.466-7.061 4.279-0.617-0.1 0.555-15.604 0.619-16.94 0.457-9.278-0.705-18.507-0.678-27.802 8e-3 -2.151 0.6-11.082-2.557-10.399-0.996 2.168 0.313 4.365-0.107 6.593-5.334-0.399-2.961-6.096-2.846-9.167 0.137-3.736-0.377-7.494-0.359-11.235 0.02-4.456-0.447-8.898-0.518-13.354-0.055-3.419-1.188-8.87 1.604-11.705 1.814-1.845 5.152-1.125 7.086-2.653 1.793-1.414 1.932-2.559 1.039-4.614-0.355-0.812-1.227-0.984-1.564-1.76-0.59-1.35-0.318-2.912-0.383-4.379-6.896 0.164-2.205-8.75 1.117-11.193 3.791-2.793 10.557-3.307 13.957 0.721 2.012 2.383 2.086 6.063 2.225 9.282-1.686 0.109-3.1 0.298-4.654 0.644 1.043 2.411 0.324 3.146-0.479 5.365-0.416 1.143-0.508 2.091-0.362 2.878z"/>
	<path d="m560.36 253.52c0.574 3.66 1.291 1.896 3.967 1.91 3.867 0.021 1.777 2.423-0.648 3.081-2.254 0.613-4.691 1.203-7.025 1.451-2.055-3.981 0.723-15.277-3.658-16.944-0.623 1.442 0.742 11.057-0.082 11.29 0.408-0.113 0.813 0 1.229-0.178 2.141 3.886-2.42 3.774-5.754 3.617-0.895-0.076 0.32-9.258-0.016-10.097-0.834-2.085-6.063-5.063-8.205-6.604-3.043-2.188-4.672-2.901-3.221-7.503 2.527-8.011 10.293-14.208 11.615-22.956 0.627-4.141-2.486-6.285-3.887-9.532-1.715-3.982-0.916-8.401-0.912-12.744 2e-3 -2.578-1.107-6.841 0.475-8.424 1.99-1.989 9.063-2.474 6.824-7.734-0.289-0.683-0.996-0.829-1.271-1.48-2.75-6.505 4.248-17.309 9.592-10.407 1.264 1.632 1.42 5.361 1.236 7.43-0.143 1.574-1.627 3.703-2.195 5.536-0.502 1.618-0.289 3.005 2.191 3.572 5.734 1.318 5.867 6.962 5.756 12.603-0.129 6.537 0.656 10.165-3.313 14.977-3.588 4.351-2.863 9.818-1.363 15.507 0.801 3.031 1.934 5.961 3.658 8.432 0.338 0.481 5.357 5.572 5.604 4.682-0.711 2.597-2.986 6.352-4.605 8.547-1.639 2.224-4.996 2.171-6.348 3.9-1.806 2.304-0.06 5.432 0.356 8.068z"/>
</g>
	<path d="m351.14 52.998c0.067 8.801 4.839 12.738 10.614 19.577 6.228 7.372 9.97 9.87 1.285 16.194-4.745 3.456-6.305 2.99-6.931 9.438-0.405 4.177 3.673 12.219-3.687 11.212-2.982 5.143 1.853 4.024 2.552 6.979 0.766 3.235 0.295 5.867-0.496 8.974-4.896 19.213-13.438 16.804-30.215 19.669-10.549 1.801-11.534 3.406-15.756 11.971-6.104 12.386-6.534 12.199-21.885 12.613-15.131 0.408-30.91-0.662-44.736-7.131-30.035-14.056-39.644-49.322-40.713-79.092-1.779-49.566 25.396-116.28 88.46-100.49 15.938 3.99 35.58 10.671 48.478 20.922 11.225 8.921 12.923 35.379 13.03 49.166z" fill="#D8ADB1"/>
	<path d="m281.19 171.42c-16.563 0-29.283-2.342-40.029-7.369-34.341-16.069-40.867-57.387-41.7-80.584-1.186-33.023 9.937-66.685 28.334-85.755 12.085-12.525 26.773-18.878 43.659-18.878 5.943 0 12.201 0.813 18.599 2.415 14.918 3.734 35.552 10.452 49.127 21.243 11.633 9.243 13.563 35.604 13.678 50.493 0.053 6.873 3.271 10.54 7.725 15.615 0.799 0.908 1.631 1.856 2.484 2.867 0.617 0.73 1.21 1.413 1.768 2.057 3.104 3.574 5.346 6.155 4.989 9.292-0.272 2.396-1.999 4.593-5.772 7.341-0.97 0.707-1.795 1.245-2.522 1.719-2.72 1.773-3.286 2.144-3.709 6.5-0.093 0.945 0.132 2.335 0.348 3.679 0.452 2.811 0.92 5.716-0.711 7.63-0.899 1.056-2.241 1.567-4.027 1.539-0.305 0.71-0.245 0.963-0.243 0.966 0.058 0.132 0.555 0.45 0.821 0.621 0.884 0.563 2.218 1.416 2.641 3.195 0.885 3.742 0.267 6.769-0.503 9.793-4.402 17.273-12.291 18.307-24.232 19.868-2.316 0.303-4.711 0.616-7.355 1.068-9.898 1.688-10.513 2.936-14.506 11.038-6.465 13.117-7.688 13.148-22.658 13.551l-0.72 0.019c-1.897 0.052-3.741 0.077-5.486 0.077zm-9.736-189.15c-15.918 0-29.776 5.999-41.189 17.828-17.783 18.434-28.528 51.109-27.374 83.249 0.805 22.415 7.036 62.303 39.726 77.601 10.273 4.807 22.531 7.045 38.574 7.045 1.714 0 3.526-0.025 5.389-0.075l0.72-0.02c14.123-0.378 14.123-0.378 19.672-11.639 4.441-9.012 5.772-10.984 17.007-12.902 2.711-0.463 5.249-0.795 7.487-1.088 12.032-1.575 17.524-2.294 21.353-17.313 0.813-3.192 1.132-5.438 0.489-8.155-0.093-0.389-0.403-0.62-1.146-1.095-2.032-1.297-3.586-3.061-1.219-7.141l0.576-0.994 1.141 0.154c0.343 0.048 0.657 0.07 0.938 0.07 0.438 0 1.014-0.058 1.248-0.334 0.604-0.707 0.218-3.105-0.063-4.857-0.251-1.56-0.51-3.171-0.376-4.557 0.56-5.757 2.014-6.933 5.252-9.042 0.691-0.452 1.479-0.964 2.377-1.618 2.802-2.041 4.235-3.661 4.383-4.955 0.187-1.637-1.642-3.74-4.171-6.653-0.567-0.654-1.171-1.349-1.798-2.091-0.84-0.994-1.657-1.927-2.442-2.82-4.757-5.42-8.515-9.701-8.577-17.853-0.089-11.493-1.473-39.166-12.38-47.833-13.096-10.408-33.237-16.947-47.827-20.602-6.13-1.532-12.107-2.31-17.77-2.31z"/>
	<path d="m102.17 328.23v-135.93c2.495-11.318 4.367-23.823 10.972-32.309 2.225-2.857 5.462-6.952 9.055-10.933 4.966-5.501 10.611-10.786 15.206-12.291 9.893-3.24 25.518 2.75 35.056 5.167 33.926 8.595 70.419 16.754 104.74 20.363 44.605 4.693 68.958 29.168 84.024 77.957 6.923 22.414 10.412 44.968 20.633 66.015 3.011 6.2 8.192 13.846 12.492 21.957l-292.18 2e-3z" fill="#E7E2D8"/>
	<path d="m392.23 328.23c-1.879-3.487-3.903-6.879-5.813-10.076-2.368-3.964-4.604-7.708-6.234-11.064-6.952-14.318-10.895-29.584-14.704-44.346-1.857-7.193-3.777-14.632-6.032-21.933-15.208-49.247-39.861-72.171-82.436-76.65-37.037-3.896-75.572-12.954-105.01-20.411-1.87-0.474-3.961-1.08-6.174-1.722-6.649-1.928-14.924-4.327-21.734-4.327-2.337 0-4.392 0.284-6.106 0.847-2.447 0.802-6.932 3.493-14.401 11.768-3.463 3.837-6.611 7.803-8.967 10.829-5.446 6.996-7.571 17.114-9.627 26.9-0.885 4.212-1.731 8.245-2.819 12.029v-16.742c1.937-8.922 4.288-17.794 9.497-24.483 2.395-3.076 5.599-7.111 9.142-11.037 6.529-7.232 11.767-11.426 16.012-12.815 2.092-0.685 4.537-1.031 7.271-1.031 7.342 0 15.899 2.48 22.774 4.476 2.183 0.633 4.243 1.229 6.052 1.688 29.313 7.426 67.678 16.446 104.48 20.317 44.292 4.66 69.896 28.365 85.614 79.264 2.281 7.386 4.213 14.866 6.08 22.103 3.938 15.255 7.659 29.664 14.448 43.646 1.56 3.211 3.756 6.89 6.081 10.781 2.26 3.782 4.672 7.82 6.839 11.992l-4.236-3e-3z"/>
	<path d="m337.23 328.23c-21.65-39.779-27.267-86.936-45.062-128-5.471-12.035-9.449-24.97-14.056-37.817-0.308-0.034-0.604-0.077-0.914-0.11-6.075-0.639-12.221-1.427-18.405-2.327 4.089 57.051 4.589 115.12 24.857 168.26l53.58-2e-3z" fill="#D1CCC2"/>
	<path d="m210.6-14.656c7.433-6.368 18.141-12.229 27.768-13.433 13.711-1.712 27.801 1.049 41.591 0.63 18.992-0.576 41.617 6.983 54.659 21.16 7.844 8.528 2.803 14.723 2.656 24.248-0.129 8.391 2.033 16.445 2.375 25.007 0.848 21.337 0.91 42.876-4.859 63.655-6.993 25.191-13.204 49.492-17.951 75.209-5.438 29.476-13.854 59.708-26.107 87.258-11.497 25.85-28.912 27.392-55.117 20.039-15.388-4.318-30.499-9.365-46.451-11.433-15.73-2.036-31.434-0.415-47.186-1.446-48.065-3.154-36.366-55.08-24.329-86.098 9.915-25.55 24.099-49.173 38.813-72.35 9.296-14.64 19.64-29.393 24.455-46.13 5.169-17.965 3.515-37.547 9.947-55.166 3.896-10.67 9.486-21.726 18.228-29.811 0.483-0.447 0.987-0.894 1.508-1.339z" fill="#D9BC7B"/>
	<path d="m258.35 294.65c-6.379 0-13.75-1.234-23.199-3.885-3.092-0.868-6.172-1.766-9.251-2.661-11.964-3.484-24.336-7.087-36.957-8.724-7.389-0.956-14.79-1.088-21.688-1.088-1.808 0-3.615 0.011-5.423 0.021-1.814 0.01-3.629 0.02-5.444 0.02-4.265 0-9.326-0.046-14.522-0.387-14.24-0.936-24.484-6.151-30.448-15.507-12.801-20.079-2.593-54.309 4.632-72.924 10.386-26.763 25.558-51.531 38.964-72.647 1.167-1.837 2.35-3.677 3.536-5.521 8.149-12.667 16.576-25.767 20.719-40.163 2.323-8.077 3.268-16.7 4.181-25.04 1.103-10.071 2.242-20.485 5.804-30.24 4.899-13.42 11.008-23.391 18.674-30.481 0.501-0.464 1.021-0.926 1.561-1.386 6.77-5.801 17.855-12.48 28.67-13.831 3.119-0.39 6.451-0.579 10.187-0.579 4.815 0 9.707 0.317 14.438 0.624 5.646 0.365 11.47 0.741 17.128 0.572 0.691-0.021 1.389-0.031 2.089-0.031 20.582 0 41.732 8.535 53.885 21.744 6.128 6.663 5.104 12.205 4.021 18.072-0.43 2.32-0.872 4.721-0.912 7.364-0.069 4.506 0.535 8.866 1.176 13.483 0.513 3.694 1.042 7.516 1.198 11.428 0.78 19.665 1.108 42.465-4.921 64.184-5.995 21.596-12.813 47.4-17.917 75.062-6.002 32.521-14.825 62.009-26.229 87.645-7.656 17.202-18.125 24.875-33.952 24.876zm-91.095-19.788c7.013 0 14.547 0.136 22.129 1.117 12.884 1.669 25.386 5.31 37.476 8.83 3.067 0.894 6.138 1.787 9.219 2.65 9.138 2.564 16.215 3.758 22.271 3.758 14.285-1e-3 23.788-7.046 30.814-22.842 11.292-25.389 20.035-54.617 25.987-86.872 5.13-27.791 11.971-53.688 17.984-75.355 5.897-21.241 5.569-43.724 4.798-63.128-0.147-3.745-0.666-7.48-1.168-11.094-0.63-4.542-1.28-9.238-1.207-14.009 0.045-2.932 0.535-5.59 0.969-7.935 1.043-5.646 1.796-9.725-3.172-15.126-11.355-12.343-31.996-20.636-51.359-20.636-0.665 0-1.328 0.01-1.985 0.028-5.798 0.183-11.729-0.206-17.453-0.578-4.676-0.303-9.512-0.615-14.216-0.615-3.592 0-6.784 0.181-9.761 0.552-10.059 1.257-20.473 7.557-26.864 13.033-0.504 0.432-0.991 0.863-1.461 1.298-7.257 6.713-13.072 16.244-17.781 29.141-3.418 9.363-4.535 19.567-5.615 29.438-0.929 8.482-1.889 17.255-4.295 25.614-4.281 14.883-12.846 28.195-21.129 41.07-1.184 1.84-2.363 3.673-3.526 5.505-13.318 20.979-28.388 45.577-38.661 72.05-6.989 18.012-16.925 51.033-4.938 69.837 5.344 8.384 14.69 13.068 27.779 13.929 5.098 0.334 10.089 0.379 14.298 0.379 1.809 0 3.617-0.01 5.426-0.021 1.814-8e-3 3.627-0.018 5.441-0.018z"/>
	<path d="m212.6-10.183c-0.46 0.423-0.905 0.847-1.335 1.273-7.728 7.679-12.671 18.178-16.115 28.312-5.688 16.732-4.225 35.33-8.795 52.391-4.258 15.896-13.402 29.906-21.621 43.812-13.01 22.01-25.551 44.444-34.316 68.707-4.395 12.163-18.925 53.444-7.803 65.033 2.098 2.186 4.818 2.479 7.693 1.985 6.412-51.66 24.666-101.73 60.863-142.1 8-8 8-19 11-30 7.418-32.145 11.019-68.105 23.549-98.444-4.831 2.395-9.432 5.637-13.12 9.031z" fill="#E6D09E"/>
	<path d="m243.16-23.422c-13.384 34.752-23.428 70.967-31.992 108.65-3 12-7 23-15 33-19 27-37 52-45 83-3.847 15.387-6.35 31.219-7.646 47.151 0.987 3.613 0.562 7.765 0.82 11.675 3.442 1.362 7.341 1.489 11.375 0.969 1.938-21.988 5.69-44.066 9.451-65.795 5-36 30-63 47-95 21.515-39.588 34.146-81.396 49.995-122.88-6.343-0.405-12.704-0.994-19.003-0.775z" fill="#E6D09E"/>
	<path d="m322.25-2.246c-0.285-0.333-0.591-0.649-0.887-0.977-18.646 59.297-51.689 111.28-91.191 162.45-15 20-23 47-26 74-0.222 4.434-0.598 8.816-1.07 13.176 4.252-1.292 8.479-2.147 12.587-2.028 1.55-3.605 2.753-7.31 3.483-11.146 7-39 22-73 42-107 6-11 16-18 23-29 13.689-22.816 26.965-44.351 41.744-64.615-0.713-3.871-1.375-7.761-1.316-11.832 0.128-9.049 4.587-14.931-2.35-23.031z" fill="#E6D09E"/>
	<path d="m280.17 254.23c5.945-9.908 8.846-20.248 13.293-29.875 0.752-3.74 1.318-7.478 1.459-11.228 0.199-5.313 0.459-10.432 0.873-15.515-15.522 13.688-23.692 37.571-35.016 57.885 0.842 4.409-5.27 15.583-6.484 20.581-0.328 1.351 5.242 0.881 11.506-0.246 0.125-0.201 0.242-0.402 0.369-0.604 4-6.998 9-13.998 14-20.998z" fill="#E6D09E"/>
	<path d="m307.17 93.23c-38 52-80 100-89 166-0.687 4.291-1.854 8.461-3.366 12.547 3.265 1.776 6.788 1.791 10.37 0.785 3.449-12.802 6.741-25.549 10.996-37.332 4-10 8-21 15-30 18-21 30-42 44-66 5.232-7.56 10.809-14.771 17.111-21.064 1.553-14.056 4.149-27.774 9.116-40.859 1.562-4.115 2.291-7.116 2.858-10.562-5.598 9.298-10.445 17.002-17.085 26.485z" fill="#E6D09E"/>
	<path d="m273.92-22.342c-3.898 0.127-7.824-0.055-11.757-0.305-15.85 41.479-28.48 83.289-49.995 122.88-17 32-42 59-47 95-3.761 21.729-7.514 43.807-9.451 65.795 5.824-0.751 11.931-2.854 17.373-4.568 1.903-24.728 7.047-48.994 19.078-72.227 2-3 6-5 8-8 41.1-63.935 59.681-131.2 83.926-198-3.456-0.476-6.877-0.677-10.174-0.57z" fill="#E6D09E"/>
	<path d="m328.66-35.975c14.823 2.34 58.336 14.516 27.243 33.502-10.235 6.25-95.531 6.174-123.94-0.563-19.046-4.517-40.544-15.503-17.169-32.309 14.566-10.469 91.868-4.1 113.86-0.63zm-12.478-14.789c-24.02-1.858-46.293-2.064-70.185-1.064-10.789 0.45-21.677 1.393-32.264 3.504-16.279 3.246-39.004 11.247-34.983 31.463 2.915 14.646 22.164 20.459 35.141 22.164 30.976 4.07 63.512 7.714 94.764 7.028 19.563-0.429 74.816 8.635 79.813-19.16 5.1-28.389-52.118-42.375-72.286-43.935z" fill="#FBF177"/>
	<path d="m342.28 15.128h-6e-3c-6.984 0-13.842-0.345-19.891-0.647-5.503-0.275-10.163-0.517-13.694-0.434-2.533 0.056-5.146 0.083-7.763 0.083-29.027 0-59.094-3.425-87.261-7.126-7.688-1.011-33.05-5.694-36.6-23.53-3.283-16.51 9.279-28.087 36.33-33.479 9.419-1.879 19.755-3.003 32.528-3.535 9.562-0.399 18.481-0.595 27.27-0.595 14.553 0 28.657 0.544 43.119 1.662 15.762 1.219 55.039 10.009 69.087 28.186 4.277 5.537 5.877 11.514 4.754 17.765-3.486 19.403-28.991 21.65-47.873 21.65zm-32.158-4.527c3.422 0 7.599 0.209 12.435 0.451 6.009 0.303 12.819 0.645 19.72 0.645 28.053 0 42.192-5.982 44.502-18.829 0.944-5.255-0.433-10.321-4.093-15.058-12.608-16.316-49.622-25.548-66.636-26.862-14.373-1.112-28.391-1.653-42.854-1.653-8.74 0-17.613 0.194-27.126 0.592-12.593 0.525-22.761 1.63-32 3.474-17.329 3.455-37.231 11.369-33.637 29.443 3.104 15.6 26.565 19.863 33.682 20.8 28.051 3.686 57.983 7.097 86.813 7.097 2.592 0 5.179-0.027 7.688-0.083 0.481-0.013 0.984-0.017 1.506-0.017zm-7.447-6.766c-29.873 0-57.782-2.042-71.103-5.2-7.87-1.866-26.402-7.355-28.507-17.995-1.109-5.612 2.501-11.458 10.731-17.377 5.603-4.026 19.821-6.068 42.261-6.068 27.501 0 59.74 3.064 72.87 5.137 10.169 1.605 37.083 8.4 39.464 20.404 1.077 5.432-2.823 10.9-11.594 16.257-7.358 4.492-43.286 4.842-54.122 4.842zm-46.617-43.21c-27.037 0-36.814 2.95-40.257 5.425-7.043 5.063-10.194 9.747-9.369 13.924 1.192 6.025 10.886 11.755 25.932 15.321 13.084 3.104 40.683 5.108 70.312 5.108 27.052 0 48.083-1.744 52.334-4.341 7.415-4.527 10.785-8.787 10.017-12.66-1.841-9.282-25.476-15.921-36.633-17.684-13.024-2.053-45.018-5.093-72.336-5.093z"/>
	<path d="m350.74 39.881c-5.608 1.011-10.362 7.923-10.778 13.088 3.928-1.567 5.953-8.803 11.128-7.909-0.761-1.169-0.953-2.599-0.737-4.053l0.387-1.126z" fill="#CDAF70"/>
	<path d="m338.28 55.259l0.193-2.409c0.475-5.884 5.71-13.312 12.008-14.444l2.518-0.453-1.173 3.406c-0.104 0.818-0.083 1.942 0.527 2.883l1.875 2.881-3.387-0.584c-2.221-0.378-3.849 1.555-5.591 3.665-1.376 1.666-2.798 3.39-4.727 4.159l-2.243 0.896zm10.496-13.116c-2.324 1.212-4.383 3.52-5.724 6.01 1.575-1.907 3.342-3.986 5.873-4.532-0.095-0.475-0.145-0.969-0.149-1.478z"/>
	<path d="m346.34 61.701c-0.936 0-1.836-0.017-2.644-0.031-0.701-0.014-1.351-0.021-1.862-0.022l-0.01-3c0.566 0 1.203 0.01 1.928 0.022 2.44 0.046 5.784 0.107 8.046-0.346 0.88-0.176 2.526-1.028 3.98-1.779 3.16-1.636 5.019-2.527 6.428-1.893l-1.238 2.731c0.134 0.062 0.225 0.063 0.226 0.063h-4e-3c-0.624 0-2.758 1.104-4.032 1.763-1.787 0.925-3.477 1.798-4.771 2.058-1.773 0.354-3.995 0.434-6.047 0.434z"/>
	<path d="m354.82 61.739c-0.407 0-0.825-0.038-1.255-0.118l0.551-2.949c2.298 0.438 4.302-1.418 5.967-3.277l2.236 2c-1.854 2.071-4.332 4.344-7.499 4.344z"/>
	<path d="m355.1 62.832c-1.245 0-2.354-0.451-3.132-1.294l2.205-2.033c0.261 0.282 0.771 0.391 1.354 0.288l0.513 2.957c-0.321 0.055-0.635 0.082-0.94 0.082z"/>
	<path d="m341.09 63.439c3.912 1.299 8.356 0.973 12.299 2.287 1.54-11.111-9.04-1.205-12.299-2.287z" fill="#fff"/>
	<path d="m354.62 67.72l-1.713-0.57c-1.831-0.61-3.8-0.841-5.883-1.085-2.122-0.249-4.316-0.506-6.41-1.2-1e-3 0-3e-3 -1e-3 -4e-3 -1e-3l0.945-2.848s0.033 8e-3 0.107 8e-3c0.784 0 2.354-0.705 3.738-1.327 1.961-0.882 3.988-1.793 5.742-1.793 1.466 0 2.335 0.645 2.806 1.186 1.017 1.167 1.309 3.023 0.917 5.845l-0.245 1.785zm-7.218-4.632c1.526 0.18 3.09 0.363 4.631 0.712 4e-3 -1.257-0.272-1.656-0.345-1.74-0.037-0.042-0.137-0.155-0.544-0.155-0.934-2e-3 -2.362 0.574-3.742 1.183z"/>
	<path d="m349.97 60.521c-2.406 2.486 0.961 4.574 3.428 4.446 0.778-2.695-1.38-4.379-3.041-4.821l-0.387 0.375z" fill="#8D95B9"/>
	<path d="m353.18 66.475c-1.948 0-4.459-1.038-5.273-2.963-0.564-1.331-0.205-2.803 0.985-4.033l1.03-1 0.821 0.219c1.564 0.418 2.943 1.453 3.688 2.769 0.667 1.181 0.809 2.534 0.408 3.919l-0.297 1.026-1.066 0.056c-0.098 4e-3 -0.197 7e-3 -0.296 7e-3zm-2.426-4.548c-0.087 0.146-0.138 0.296-0.086 0.415 0.137 0.322 0.65 0.688 1.293 0.914-0.037-0.106-0.084-0.212-0.142-0.313-0.241-0.426-0.642-0.773-1.065-1.016z"/>
	<path d="m353.1 118.1c1.731 0.471 3.114-0.405 2.434-3.427-0.516-2.28-2.124-1.784-0.811-4.577-0.047 0.102 4.115-3.612 2.543-3.735-3.459-0.271-7.652-0.136-8.75 3.863-1.049 3.817 2.122 7.208 4.584 7.876z" fill="#A06262"/>
	<path d="m353.93 119.72c-0.391 0-0.802-0.058-1.222-0.172-1.848-0.501-3.75-2.063-4.846-3.98-1.046-1.832-1.32-3.816-0.792-5.739 0.92-3.353 3.685-5.053 8.215-5.053 0.628 0 1.314 0.03 2.1 0.092 1.045 0.081 1.775 0.869 1.736 1.872-0.039 1.005-1.77 3.171-3.148 4.238-0.267 0.615-0.253 0.814-0.253 0.823 0.017 0.027 0.126 0.18 0.207 0.289 0.323 0.44 0.813 1.106 1.07 2.255 0.413 1.831 0.228 3.255-0.553 4.229-0.591 0.74-1.483 1.146-2.514 1.146zm1.086-11.942c-3.773 0.063-4.675 1.469-5.053 2.845-0.395 1.438 0.057 2.672 0.505 3.456 0.814 1.426 2.141 2.334 3.026 2.575 0.162 0.044 0.313 0.065 0.436 0.065 0.129 0 0.179-0.023 0.181-0.024-3e-3 0 0.259-0.373-0.038-1.689-0.122-0.539-0.316-0.805-0.563-1.142-0.875-1.192-1.155-2.248-0.141-4.405l0.405-0.86 0.402 1e-3c0.243-0.225 0.545-0.518 0.84-0.822z"/>
</svg>