<?xml version="1.0" encoding="UTF-8"?>
<svg viewBox="0 0 141.73228 177.16534" xmlns="http://www.w3.org/2000/svg" xmlns:xlink="http://www.w3.org/1999/xlink">
 <defs>
  <filter id="h"/>
  <filter id="am" x="-.32243" y="-.17885" width="1.6449" height="1.3577">
   <feGaussianBlur stdDeviation="3.2125"/>
  </filter>
  <filter id="ah" x="-.03321" y="-.64306" width="1.0664" height="2.2861">
   <feGaussianBlur stdDeviation=".2561"/>
  </filter>
  <filter id="ag" x="-.04455" y="-.45798" width="1.0891" height="1.916">
   <feGaussianBlur stdDeviation="1.3048"/>
  </filter>
  <filter id="af" x="-.08039" y="-.42776" width="1.1608" height="1.8555">
   <feGaussianBlur stdDeviation="1.8296"/>
  </filter>
  <filter id="ae" x="-.36644" y="-1.98" width="1.7329" height="4.9599">
   <feGaussianBlur stdDeviation="8.6549"/>
  </filter>
  <filter id="ad" x="-.54251" y="-2.85" width="2.085" height="6.7">
   <feGaussianBlur stdDeviation="12.4743"/>
  </filter>
  <filter id="ac" x="-.03922" y="-.45283" width="1.0784" height="1.9056">
   <feGaussianBlur stdDeviation=".4252"/>
  </filter>
  <filter id="ab" x="-.32035" y="-.0752" width="1.6407" height="1.1504">
   <feGaussianBlur stdDeviation="4.2916"/>
  </filter>
  <filter id="i" x="-.0404" y="-.20819" width="1.0808" height="1.4164">
   <feGaussianBlur stdDeviation=".6197"/>
  </filter>
  <filter id="ao" x="-.09426" y="-.17392" width="1.1885" height="1.3478">
   <feGaussianBlur stdDeviation="1.0259"/>
  </filter>
  <filter id="an" x="-.07684" y="-.27287" width="1.1537" height="1.5457">
   <feGaussianBlur stdDeviation="2.2256"/>
  </filter>
  <filter id="al" x="-.26362" y="-.9368" width="1.5272" height="2.8736">
   <feGaussianBlur stdDeviation="5.9454"/>
  </filter>
  <filter id="ak" x="-.17596" y="-.07819" width="1.3519" height="1.1564">
   <feGaussianBlur stdDeviation="4.678"/>
  </filter>
  <filter id="aj" x="-.19442" y="-1.6103" width="1.3888" height="4.2205">
   <feGaussianBlur stdDeviation="1.7578"/>
  </filter>
  <filter id="ai" x="-.03699" y="-.39656" width="1.074" height="1.7931">
   <feGaussianBlur stdDeviation="1.1042"/>
  </filter>
  <filter id="g" x="-.02309" y="-.168" width="1.0462" height="1.336"/>
  <linearGradient id="b">
   <stop stop-color="#666" offset="0"/>
   <stop stop-color="#666" stop-opacity="0" offset="1"/>
  </linearGradient>
  <linearGradient id="e">
   <stop stop-color="#e6e6e6" offset="0"/>
   <stop stop-color="#e6e6e6" stop-opacity="0" offset="1"/>
  </linearGradient>
  <linearGradient id="c">
   <stop stop-color="#ccc" offset="0"/>
   <stop stop-color="#ccc" stop-opacity="0" offset="1"/>
  </linearGradient>
  <linearGradient id="d">
   <stop stop-color="#b3b3b3" offset="0"/>
   <stop stop-color="#b3b3b3" stop-opacity="0" offset="1"/>
  </linearGradient>
  <linearGradient id="f">
   <stop stop-color="#f2f2f2" offset="0"/>
   <stop stop-color="#b3b3b3" stop-opacity="0" offset="1"/>
  </linearGradient>
  <linearGradient id="a">
   <stop stop-color="#999" offset="0"/>
   <stop stop-color="#999" stop-opacity="0" offset="1"/>
  </linearGradient>
  <linearGradient id="x" x1="254.27" x2="259.29" y1="516.46" y2="516.39" gradientUnits="userSpaceOnUse">
   <stop stop-color="#ccc" offset="0"/>
   <stop stop-color="#808080" stop-opacity="0" offset="1"/>
  </linearGradient>
  <linearGradient id="aa" x1="46.02" x2="100.33" y1="237.31" y2="229.76" gradientUnits="userSpaceOnUse">
   <stop stop-color="#fff" stop-opacity=".3511" offset="0"/>
   <stop stop-color="#e6e6e6" stop-opacity="0" offset="1"/>
  </linearGradient>
  <linearGradient id="z" x1="216.07" x2="287.03" y1="452.44" y2="479.19" gradientUnits="userSpaceOnUse" xlink:href="#b"/>
  <linearGradient id="y" x1="216.07" x2="287.19" y1="452.44" y2="480.42" gradientUnits="userSpaceOnUse" xlink:href="#b"/>
  <linearGradient id="ap" x1="216.07" x2="273.32" y1="452.44" y2="472.57" gradientUnits="userSpaceOnUse" xlink:href="#b"/>
  <radialGradient id="l" cx="317.87" cy="541.39" r="3.5014" gradientTransform="matrix(2.0562 -.08178 .14652 2.4815 -415.06 -777.56)" gradientUnits="userSpaceOnUse">
   <stop stop-color="#4d4d4d" offset="0"/>
   <stop stop-color="#4d4d4d" stop-opacity="0" offset="1"/>
  </radialGradient>
  <radialGradient id="k" cx="371.37" cy="529.32" r="17" gradientTransform="matrix(.49538 -.00652 .00087559 .07533 116.31 490.28)" gradientUnits="userSpaceOnUse" xlink:href="#a"/>
  <radialGradient id="j" cx="371.37" cy="529.32" r="17" gradientTransform="matrix(.71574 -.00609 .00127 .07035 5.3438 479.06)" gradientUnits="userSpaceOnUse" xlink:href="#a"/>
  <radialGradient id="v" cx="268.27" cy="688.38" r="18.907" gradientTransform="matrix(1.0414 .06726 -.01388 .21492 -2.4906 520.08)" gradientUnits="userSpaceOnUse" xlink:href="#f"/>
  <radialGradient id="w" cx="268.27" cy="688.38" r="18.907" gradientTransform="matrix(1.0414 .06726 -.01388 .21492 -2.0496 565.21)" gradientUnits="userSpaceOnUse" xlink:href="#f"/>
  <radialGradient id="u" cx="493.27" cy="548.88" r="35.629" gradientTransform="matrix(.78488 -.00832 .00139 .10952 108.07 492.37)" gradientUnits="userSpaceOnUse" xlink:href="#e"/>
  <radialGradient id="t" cx="307.12" cy="541" r="14.094" gradientTransform="matrix(1.399 .00867 -.00066039 .10651 -122.5 482.33)" gradientUnits="userSpaceOnUse" xlink:href="#c"/>
  <radialGradient id="s" cx="273.39" cy="567.93" r="9.7534" gradientTransform="matrix(.99109 -.02672 .00366 .13584 .35554 498.08)" gradientUnits="userSpaceOnUse" xlink:href="#d"/>
  <radialGradient id="r" cx="276.39" cy="594.04" r="14.022" gradientTransform="matrix(1 0 0 .15241 -1.6288 493.72)" gradientUnits="userSpaceOnUse" xlink:href="#a"/>
  <radialGradient id="q" cx="307.12" cy="541" r="14.094" gradientTransform="matrix(1.399 .00867 -.00066039 .10651 -156.84 496.67)" gradientUnits="userSpaceOnUse" xlink:href="#c"/>
  <radialGradient id="p" cx="269.19" cy="699.39" r="13.598" gradientTransform="matrix(1 0 0 .5516 0 313.61)" gradientUnits="userSpaceOnUse" xlink:href="#d"/>
  <radialGradient id="o" cx="269.64" cy="724.91" r="35.325" gradientTransform="matrix(1 0 0 .27094 -1.8067 528.5)" gradientUnits="userSpaceOnUse" xlink:href="#d"/>
  <radialGradient id="n" cx="252.12" cy="746.21" r="28.396" gradientTransform="matrix(1.3409 .05322 -.00492 .07303 -75.051 674.22)" gradientUnits="userSpaceOnUse" xlink:href="#e"/>
  <radialGradient id="m" cx="263.61" cy="738.62" r="11.331" gradientTransform="matrix(1 0 0 .13102 0 641.84)" gradientUnits="userSpaceOnUse" xlink:href="#c"/>
 </defs>
 <g transform="matrix(.52231 0 0 .52231 -75.286 -224.48)">
  <path transform="matrix(.94495 0 0 2.1504 -381.36 -803.64)" d="m737.5 690.26c0 1.2462-15.579 2.2564-34.797 2.2564s-34.797-1.0102-34.797-2.2564 15.579-2.2564 34.797-2.2564 34.797 1.0102 34.797 2.2564z" fill="#1c0e08" fill-rule="evenodd"/>
  <path d="m296.85 586.12c-0.66981 22.774 7.6776 79.898 17.639 94.221 0.63739 0.91652-13.62 3.7956-31.258 4.0189s-31.705-4.0189-31.705-4.0189c10.234-17.825 14.513-72.117 13.173-94.221-1.2967-21.396 32.151 0 32.151 0z" fill="#180e08"/>
  <path d="m257.09 685.79 24.539 7.6128s-1.7885-64.861 0.043-105.05c1.7413-38.208-12.034-56.488-12.057 0.44655-0.0223 55.952-12.525 96.99-12.525 96.99z" fill="#ececec" fill-opacity=".5678" filter="url(#ab)" stroke="#000"/>
  <path d="m251.79 680.5c3.947 0.81362 6.1425 1.5857 12.856 2.5447 4.5484 0.64971 11.186 1.4684 20.794 1.2703 4.0545-0.0836 7.3715-0.27067 9.8758-0.46279 5.3509-0.41049 7.3407-0.66598 7.3407-0.66598l8.6349-1.4131c1.617-0.26511 2.0704-1.0117 4.2983-1.2768 0 0 0.9292 1.8773 0.76327 3.6255s-1.244 2.7019-1.244 2.7019c-1.034 0.86378-4.1626 1.7897-10.469 2.6336-7.8196 1.0465-14.046 1.2267-24.011 1.135s-19.583-1.2446-19.583-1.2446c-3.4901-0.51738-9.1332-1.3156-10.643-2.8616-0.5717-0.58547-0.97629-0.66371-1.1583-2.5952-0.10544-1.1189-0.0462-2.2944 0.33109-3.1846 0.39479-0.93152 1.1812-1.1587 2.0861-1.4865 0.22919-0.083 0.32866-0.0267 0.35603 0.0994 3e-3 0.0145 0.0151 0.0322 7e-3 0.0463-0.17372 0.29144-0.35964 1.1343-0.23619 1.1343z" fill="#180e08"/>
  <path d="m251.79 682.01s6.0908 1.3684 12.918 2.6438c6.2089 1.1598 12.929 1.3622 16.33 1.2691 7.141-0.19564 5.9671 2.3477-0.29346 2.4455-3.8142 0.0596-11-0.42328-17.585-1.4979-4.2234-0.6892-8.1997-1.8521-10.881-2.5128-6.7497-1.663-0.48911-2.3477-0.48911-2.3477z" fill="url(#v)" filter="url(#i)"/>
 </g>
 <g transform="matrix(.52231 0 0 .52231 -75.075 -224.38)">
  <path transform="translate(-198.23 11.663)" d="m500.02869,543.71442c0,.43888-9.60618.79466-21.456.79466s-21.456-.35578-21.456-.79466 9.60618-.79467 21.456-.79467 21.456.35578 21.456.79467z" fill="#1c0e08" fill-rule="evenodd"/>
  <path d="m261.53 555.26c-0.20857-5.2142-7.7171-32.12-9.5942-36.708s0.54958-6.8151 2.5028-8.5513c1.8771-1.6686 9.4808-4.6077 9.4808-4.6077l29.161-0.15169s9.3306 3.2531 11.073 4.3991c2.2828 1.5012 3.8872 2.863 2.6358 7.243s-8.1342 34.414-7.9256 38.168-37.334 0.20857-37.334 0.20857z" fill="#1c0e08"/>
  <path d="m261.65 512.25h33.371a2.4096 1.7904 0 0 1 2.4096 1.7904 2.4096 1.7904 0 0 1 -2.4096 1.7904h-33.371a2.4096 1.7904 0 0 1 -2.4096 -1.7904 2.4096 1.7904 0 0 1 2.4096 -1.7904" fill="url(#j)" fill-rule="evenodd"/>
  <path d="m259.39 510.18c0.0115-0.01-3.768 1.4122-5.2142 3.3371-0.67466 0.89797-0.62571 1.8771 0.20857 3.9628s3.8978 8.7044 3.8978 8.7044-0.96843-8.1583-1.0381-10.493c-0.0465-1.5576 0.85729-3.2213 0.85729-3.2213z" fill="url(#x)" filter="url(#h)"/>
  <path transform="matrix(-.82519 0 0 1.0054 561.28 -27.697)" d="m322.81 534.4c0.0115-0.01-3.768 1.4122-5.2142 3.3371-0.67466 0.89797-0.62571 1.8771 0.20857 3.9628s3.8978 8.7044 3.8978 8.7044-0.96843-8.1583-1.0381-10.493c-0.0465-1.5576 0.85729-3.2213 0.85729-3.2213z" fill="url(#l)" filter="url(#h)"/>
  <path transform="matrix(-.56226 -.03638 .05323 -.28638 400.03 680.88)" d="m244.46 560.23c22.981 3.182 6.1872 3.3588 24.395 3.0052s30.229-6.0104 30.229-6.0104-14.849 9.8995-29.698 10.253-24.926-7.2478-24.926-7.2478z" fill="#b3b3b3" fill-opacity=".8263" filter="url(#ad)"/>
  <g transform="translate(-26.435 -24.413)">
   <g transform="translate(.2277,-.17077)" fill="#1c0e08">
    <path d="m290.42 525.61h28.836a2.0822 2.25 0 0 1 2.0822 2.25 2.0822 2.25 0 0 1 -2.0822 2.25h-28.836a2.0822 2.25 0 0 1 -2.0822 -2.25 2.0822 2.25 0 0 1 2.0822 -2.25" fill="#1c0e08" fill-rule="evenodd"/>
   </g>
   <path d="m293.71 525.82h23.096a1.6677 1.9172 0 0 1 1.6677 1.9172 1.6677 1.9172 0 0 1 -1.6677 1.9172h-23.096a1.6677 1.9172 0 0 1 -1.6677 -1.9172 1.6677 1.9172 0 0 1 1.6677 -1.9172" fill="url(#k)" fill-rule="evenodd"/>
  </g>
  <path transform="matrix(1 -.04478 0 1 -33.65 27.405)" d="m294.21 499.24 23.688-0.11225-1.1226 47.824-13.472-1.7962z" fill="#4d4d4d" filter="url(#am)"/>
 </g>
 <g transform="matrix(.52231 0 0 .52231 -75.049 -224.25)">
  <path transform="matrix(.98222 0 0 2.299 -217.73 -789.56)" d="m526.77 596.78c0 0.66918-8.7814 1.2117-19.614 1.2117s-19.614-0.54248-19.614-1.2117 8.7814-1.2117 19.614-1.2117 19.614 0.54248 19.614 1.2117z" fill="#1c0e08" fill-rule="evenodd"/>
  <path transform="matrix(.92426,.38177,-.94034,.34024,0,0)" d="m927.87 602.08h21.509a10.771 10.816 0 0 1 10.771 10.816v23.26a10.771 10.816 0 0 1 -10.771 10.816h-21.509a10.771 10.816 0 0 1 -10.771 -10.816v-23.26a10.771 10.816 0 0 1 10.771 -10.816" fill="#1c0e08" fill-rule="evenodd"/>
  <path transform="matrix(.79347 0 0 .59014 -125.98 248.04)" d="m509.93 547.33c23.838 0 34.543-3.9367 34.84-1.4213 0.47393 4.0191-21.218 5.673-35.102 5.9566s-35.183-0.8631-35.183-4.2578c0-2.2662 24.704-0.56121 30.729-0.27756s4.7152 0 4.7152 0z" fill="url(#u)" filter="url(#ag)" stroke="#000" stroke-width=".96617"/>
  <path transform="matrix(1.0246 0 0 1 -210.87 22.296)" d="m500.02869,543.71442c0,.43888-9.60618.79466-21.456.79466s-21.456-.35578-21.456-.79466 9.60618-.79467 21.456-.79467 21.456.35578 21.456.79467z" fill="#1c0e08" fill-rule="evenodd"/>
  <path d="m257.83 561.67h43.758a2.9849 2.1395 0 0 1 2.9849 2.1395v0.12226a2.9849 2.1395 0 0 1 -2.9849 2.1395h-43.758a2.9849 2.1395 0 0 1 -2.9849 -2.1395v-0.12226a2.9849 2.1395 0 0 1 2.9849 -2.1395" fill="#1c0e08" fill-rule="evenodd"/>
  <path transform="matrix(1.0246 0 0 1 -42.146 20.951)" d="m304.89 541.21h9.4555a11.349 1.1001 0 0 1 11.349 1.1001v0.24451a11.349 1.1001 0 0 1 -11.349 1.1001h-9.4555a11.349 1.1001 0 0 1 -11.349 -1.1001v-0.24451a11.349 1.1001 0 0 1 11.349 -1.1001" fill="url(#t)" fill-rule="evenodd" filter="url(#g)"/>
  <path transform="matrix(1.0246 0 0 1 -210.87 18.122)" d="m500.02869,543.71442c0,.43888-9.60618.79466-21.456.79466s-21.456-.35578-21.456-.79466 9.60618-.79467 21.456-.79467 21.456.35578 21.456.79467z" fill="#1c0e08" fill-rule="evenodd"/>
  <g transform="translate(-59.063 26.336)" fill="#1c0e08" fill-rule="evenodd">
   <path d="m318.47108,533.33228h40.13333a.75959,.93056 0 0,1 .75959.93056v.00482a.75959,.93056 0 0,1 -.75959.93056h-40.13333a.75959,.93056 0 0,1 -.75959-.93056v-.00482a.75959,.93056 0 0,1 .75959-.93056"/>
   <path transform="translate(-.08689,.86887)" d="m359.02 532.52c0 0.28792-9.1027 0.52132-20.331 0.52132s-20.331-0.2334-20.331-0.52132 9.1027-0.52132 20.331-0.52132 20.331 0.2334 20.331 0.52132z"/>
   <path transform="translate(-.17377,2.6066)" d="m359.02 532.52c0 0.28792-9.1027 0.52132-20.331 0.52132s-20.331-0.2334-20.331-0.52132 9.1027-0.52132 20.331-0.52132 20.331 0.2334 20.331 0.52132z"/>
  </g>
  <path transform="translate(-1.7183 -7.4625)" d="m282.64219,567.92584c0,.26393-4.1429.47788-9.25343.47788s-9.25342-.21395-9.25342-.47788 4.1429-.47787 9.25342-.47787 9.25343.21395 9.25343.47787z" fill="url(#s)" fill-rule="evenodd" filter="url(#ah)"/>
  <path transform="translate(-199.02 15.686)" d="m500.02869,543.71442c0,.43888-9.60618.79466-21.456.79466s-21.456-.35578-21.456-.79466 9.60618-.79467 21.456-.79467 21.456.35578 21.456.79467z" fill="#1c0e08" fill-rule="evenodd"/>
  <path d="m258.44 555.06h42.709a2.9134 2.1395 0 0 1 2.9134 2.1395v0.12226a2.9134 2.1395 0 0 1 -2.9134 2.1395h-42.709a2.9134 2.1395 0 0 1 -2.9134 -2.1395v-0.12226a2.9134 2.1395 0 0 1 2.9134 -2.1395" fill="#1c0e08" fill-rule="evenodd"/>
  <path d="m270.54 555.55h9.4555a11.349 1.1001 0 0 1 11.349 1.1001v0.24451a11.349 1.1001 0 0 1 -11.349 1.1001h-9.4555a11.349 1.1001 0 0 1 -11.349 -1.1001v-0.24451a11.349 1.1001 0 0 1 11.349 -1.1001" fill="url(#q)" fill-rule="evenodd" filter="url(#g)"/>
  <path d="m254.59 574.11c22.981 3.182 6.1872 3.3588 24.395 3.0052s30.229-6.0104 30.229-6.0104-14.849 9.8995-29.698 10.253-24.926-7.2478-24.926-7.2478z" fill-opacity=".8263" filter="url(#af)"/>
  <path transform="matrix(-1.0029 -.03987 .09495 -.31384 490.27 756.28)" d="m244.46 560.23c22.981 3.182 6.1872 3.3588 24.395 3.0052s30.229-6.0104 30.229-6.0104-14.849 9.8995-29.698 10.253-24.926-7.2478-24.926-7.2478z" fill="#b3b3b3" fill-opacity=".8263" filter="url(#ae)"/>
  <path transform="matrix(.98222 0 0 2.299 -217.74 -787.64)" d="m526.77 596.78c0 0.66918-8.7814 1.2117-19.614 1.2117s-19.614-0.54248-19.614-1.2117 8.7814-1.2117 19.614-1.2117 19.614 0.54248 19.614 1.2117z" fill="#180e08" fill-rule="evenodd"/>
  <path d="m261.69 582.06h37.459a0.84207 1.3594 0 0 1 0.84207 1.3594 0.84207 1.3594 0 0 1 -0.84207 1.3594h-37.459a0.84207 1.3594 0 0 1 -0.84207 -1.3594 0.84207 1.3594 0 0 1 0.84207 -1.3594" fill="#180e08" fill-rule="evenodd"/>
  <path d="m261.75 583.14c17.415 0.61464 10.756 0.61464 17.415 0.61464s8.7075-0.30732 8.605 0.51221-6.7611 1.1268-12.088 1.1268-13.625-1.0244-13.727-1.6391-0.20489-0.61464-0.20489-0.61464z" fill="url(#r)" filter="url(#ac)"/>
 </g>
 <g transform="matrix(.52231 0 0 .52231 -75.286 -224.48)">
  <path transform="matrix(1 0 0 1.1285 -424.11 -112.35)" d="m766.23 753.84c0 3.7077-26.49 6.7134-59.168 6.7134s-59.168-3.0057-59.168-6.7134 26.49-6.7134 59.168-6.7134 59.168 3.0057 59.168 6.7134z" fill="#180e08" fill-rule="evenodd"/>
  <path transform="matrix(1 0 0 1.1285 -424.11 -107.43)" d="m766.23 753.84c0 3.7077-26.49 6.7134-59.168 6.7134s-59.168-3.0057-59.168-6.7134 26.49-6.7134 59.168-6.7134 59.168 3.0057 59.168 6.7134z" fill="#1c0e08" fill-rule="evenodd"/>
  <path d="m231.19 736.11h103.54a7.3755 2.6032 0 0 1 7.3755 2.6032v4.2003a7.3755 2.6032 0 0 1 -7.3755 2.6032h-103.54a7.3755 2.6032 0 0 1 -7.3755 -2.6032v-4.2003a7.3755 2.6032 0 0 1 7.3755 -2.6032" fill="#1c0e08" fill-rule="evenodd"/>
  <path d="m233.29 737.13s10.695 4.2526 27.683 5.2414c17.159 0.99877 35.575 1.2538 34.848-1.6529 0 0 11.495 3.9838 0.45979 4.2586s-20.92-0.13737-30.576-0.54949-26.208-2.2024-33.335-3.7135 0.91956-3.5841 0.91956-3.5841z" fill="url(#n)" filter="url(#ai)"/>
  <g transform="matrix(1.0277 0 0 1 -8.3046 -40.865)">
   <path d="m252.23 725.63c3.947 0.81362 6.1425 1.5857 12.856 2.5447 4.5484 0.64971 11.186 1.4684 20.794 1.2703 4.0545-0.0836 7.3715-0.27067 9.8758-0.46279 5.3509-0.41049 7.3407-0.66598 7.3407-0.66598l8.6349-1.4131c1.617-0.26511 2.0704-1.0117 4.2983-1.2768 0 0 0.9292 1.8773 0.76327 3.6255s-1.244 2.7019-1.244 2.7019c-1.034 0.86378-4.1626 1.7897-10.469 2.6336-7.8196 1.0465-14.046 1.2267-24.011 1.135s-19.583-1.2446-19.583-1.2446c-3.4901-0.51738-9.1332-1.3156-10.643-2.8616-0.5717-0.58547-0.97629-0.66371-1.1583-2.5952-0.10544-1.1189-0.0462-2.2944 0.33109-3.1846 0.39479-0.93152 1.1812-1.1587 2.0861-1.4865 0.22919-0.083 0.32866-0.0267 0.35603 0.0994 3e-3 0.0145 0.0151 0.0322 7e-3 0.0463-0.17372 0.29144-0.35964 1.1343-0.23619 1.1343z" fill="#180e08"/>
   <path d="m252.23 727.14s6.0908 1.3684 12.918 2.6438c6.2089 1.1598 12.929 1.3622 16.33 1.2691 7.141-0.19564 5.9671 2.3477-0.29346 2.4455-3.8142 0.0596-11-0.42328-17.585-1.4979-4.2234-0.6892-8.1997-1.8521-10.881-2.5128-6.7497-1.663-0.48911-2.3477-0.48911-2.3477z" fill="url(#w)" filter="url(#i)"/>
  </g>
  <path d="m248.35 688.84s15.125 5.2067 34.869 5.049c17.198-0.13743 33.923-5.2067 33.923-5.2067 3.2665 7.3209 16.388 23.758 18.01 26.409 4.5029 7.3618-0.33857 15.718-4.4408 17.296-4.1886 1.611-11.202 4.448-47.176 4.4178-35.502-0.0298-45.015-3.6539-48.123-4.5756-2.8975-0.85944-9.0155-4.8363-3.1556-16.882 3.2546-6.6905 12.972-18.989 16.094-26.507z" fill="#1c0e08"/>
  <path transform="matrix(1.3966 .11499 -.11855 1.2496 -25.161 -206.46)" d="m282.29 699.39c0 3.8664-5.8643 7.0008-13.098 7.0008s-13.098-3.1344-13.098-7.0008 5.8643-7.0008 13.098-7.0008 13.098 3.1344 13.098 7.0008z" fill="url(#p)" fill-rule="evenodd" filter="url(#ao)"/>
  <path transform="matrix(.83768 .03786 -.02475 1.2814 56.693 -218.62)" d="m238.93048,716.32385c.60222,0 1.80666-.60222 1.80666,0s-2.40888,0-1.80666,0c4.3577,0 .79671-.33665 3.16165.45166 .43279.14426 1.8399-.13947 2.25832,0 .20199.0673.24968.38434.45167.45167 .6775.22583 1.58082-.22584 2.25832,0 .20199.0673.26123.35644.45167.45166 .26932.13466.634-.13466.90332,0 .19044.0952.24968.38433.45167.45166 .30727.10243 2.01883-.11974 2.25832,0 .19044.0952.26123.35645.45166.45167 .13746.0687 1.15159,0 1.355,0h4.51664c.2521,0 2.05157-.0689 2.25832,0 .202.0673.26123.35644.45167.45166 .13466.0673.30111,0 .45166,0h.90333 1.80666 8.12996 4.96831c.31415,0 2.09498-.0817 2.25832,0 .19044.0952.26123.35645.45167.45167 .16333.0817 1.94417,0 2.25832,0h4.96831 9.93661 3.16165c.20341,0 1.21754-.0687 1.355,0 .88663.44332.20334.85834.45166,1.35499 .0952.19044.35645.26123.45167.45167 .0673.13466-.10646.3452 0,.45166s.3452-.10646.45166,0c.13986.13986-.13986,2.11847 0,2.25832 .10646.10646.34521-.10646.45167,0s0,.30111 0,.45167v.45166 2.25832c0,.2968.0849,1.10017 0,1.355-.11003.33007-.48992,1.14828-.90333,1.35499-.13466.0673-.31701-.0673-.45167,0-.38087.19044-.52245.71289-.90333.90333-.13466.0673-.317-.0673-.45166,0-.19044.0952-.26123.35644-.45167.45166-.26932.13466-.69041-.21291-.90332,0-.10646.10646.10645.34521 0,.45167-.0923.0923-1.17592-.0895-1.355,0-.19044.0952-.26122.35644-.45166.45166-.26932.13466-.63401-.13466-.90333,0-.19044.0952-.26123.35645-.45167.45167-.28388.14194-1.52277-.14194-1.80665,0-.19044.0952-.26123.35644-.45167.45166-.28388.14194-1.52277-.14194-1.80666,0-.19043.0952-.26122.35645-.45166.45167-.10123.0506-1.69933,0-1.80666,0h-2.25832c-.15055,0-.30884-.0476-.45166,0-.31938.10645-.58396.3452-.90333.45166-.25483.0849-1.0582,0-1.355,0h-3.61331-7.22663-14.90493-7.22663c-.10954,0-1.34047.0145-1.35499,0-.10646-.10646.10646-.34521 0-.45166-.21292-.21292-.63401.13466-.90333,0-.19044-.0952-.26123-.35645-.45167-.45167-.28388-.14194-1.52277.14194-1.80665,0-.19044-.0952-.26123-.35644-.45167-.45166-.26932-.13466-.63401.13466-.90333,0-.19044-.0952-.26122-.35645-.45166-.45167-.36133-.18066-.99366.18067-1.35499,0-.11993-.06-1.29504-1.23507-1.355-1.35499-.13466-.26932.21292-.69041 0-.90333-.10646-.10646-.3452.10646-.45166,0s.10646-.34521 0-.45166-.31701.0673-.45167,0c-.19044-.0952-.26122-.35645-.45166-.45167-.26932-.13466-.63401.13466-.90333,0-.19044-.0952-.26123-.35644-.45166-.45166-.13466-.0673-.34521.10646-.45167,0s.10646-.34521 0-.45167-.34521.10646-.45166,0 .10645-.3452 0-.45166-.31701.0673-.45167,0c-.19044-.0952-.26122-.35645-.45166-.45167-.13466-.0673-.31701.0673-.45167,0-.54199-.271-.81299-1.08399-1.35499-1.35499-.13466-.0673-.34521.10646-.45166,0s.10645-.34521 0-.45166-.34521.10645-.45167,0c-.21292-.21292.21292-.69042 0-.90333-.10646-.10646-.34521.10646-.45166,0-.21292-.21292.21291-.69042 0-.90333-.10646-.10646-.34521.10646-.45167,0s.10646-.34521 0-.45167-.3452.10646-.45166,0 .0673-.317 0-.45166c-.0952-.19044-.35645-.26123-.45167-.45167-.0584-.11677 0-2.38984 0-2.70998 0-.15056-.10646-.34521 0-.45167s.34521.10646.45167,0-.10646-.3452 0-.45166c.93451-.93451-.0365,1.42805.90333-.45167 .0673-.13466-.0673-.317 0-.45166 .49932-.99865.28032-.14016.90333-.45166 .54199-.271.81299-1.084 1.35499-1.355 .13466-.0673.30403-.0295.45166,0 .6087.12174 1.20444.30111 1.80666.45167z" fill="url(#o)" filter="url(#an)"/>
  <path transform="matrix(-.81604 -.11052 .06178 -.65805 452.12 1110)" d="m244.46 560.23c22.981 3.182 6.1872 3.3588 24.395 3.0052s30.229-6.0104 30.229-6.0104-14.849 9.8995-29.698 10.253-24.926-7.2478-24.926-7.2478z" fill="#e6e6e6" filter="url(#al)"/>
  <path d="m233.63 731.55c12.824 2.6258 26.022 4.2368 47.263 4.6547 21.493 0.4228 31.703 0.20859 50.485-4.1176-1.5022 1.3128-1.5412 2.6257-0.17903 3.9386-9.1303 3.0319-23.462 4.6618-50.306 4.6547-26.762-7e-3 -39.441-2.5364-47.263-5.0127 1.4296-1.3725 1.8982-2.745 0-4.1176z" fill="#120900"/>
  <path transform="matrix(.92709 .03925 -.05585 .48765 61.85 368.41)" d="m274.45 738.62c0 0.5438-4.8492 0.98463-10.831 0.98463s-10.831-0.44083-10.831-0.98463 4.8492-0.98464 10.831-0.98464 10.831 0.44083 10.831 0.98464z" fill="url(#m)" fill-rule="evenodd" filter="url(#aj)" opacity=".8359"/>
 </g>
 <path transform="matrix(.52231 0 0 .52231 28.986 -.49349)" d="m77.084 167.92c-2.9393 81.042-15.537 131.85-13.017 131.85s17.636 2.9393 30.233 1.2597 42.83 0.41992 30.233-18.056c-5.8913-8.6406-19.354-29.338-26.205-54.426-7.799-28.557-4.8676-57.783-4.8676-63.147 0-10.078 1.6796-7.1384-7.5583-6.7185s-8.818 9.2379-8.818 9.2379z" fill="url(#aa)" filter="url(#ak)" opacity=".8359"/>
 <g transform="matrix(.52231 0 0 .52231 -77.369 -219.65)">
  <path d="m275.94 481.49-13.632 5.7822-0.76817-29.345 13.695 6.1872-7.5504-11.647 26.755-0.7255-7.7448 14.873 14.657 2.6383-0.3205 8.897-13.985 1.1611 6.6887 13.059-23.938 0.36275z" fill="#3c1e13"/>
  <path d="m294.46 451.79-26.787 0.70427 15.233-24.386z" fill="#3c1e08"/>
  <g transform="translate(2.6516)" fill="#100708">
   <path d="m276.83 477.64-14.978 6.1027-0.0631-21.845 15.041 5.9308-9.1529-15.365 26.755-0.7255-6.3987 12.437 13.375-7.105 0.1282 29.665-13.216-5.1849 5.4067 10.816-23.938 0.36275z"/>
   <path d="m294.46 451.79-13.967 0.38377-0.27886-23.874z"/>
  </g>
  <g transform="translate(1.4142)" fill="#1c0e08">
   <path d="m276.83 479.31-14.786 6.1668-0.70407-25.755 15.49 6.8923-9.1529-14.147 26.755-0.7255-7.7448 14.873 14.786-7.6178v25.755l-14.433-5.4413 6.6887 13.059-23.938 0.36275z"/>
   <path d="m294.46 451.79-26.787 0.70427 13.759-22.207z"/>
  </g>
  <g transform="translate(1.4142)">
   <path d="m276.83 479.31-14.786 6.1668-0.70407-25.755 15.49 6.8923-9.1529-14.147 26.755-0.7255-7.7448 14.873 14.786-7.6178v25.755l-14.433-5.4413 6.6887 13.059-23.938 0.36275z" fill="url(#z)"/>
   <path d="m294.46 451.79-26.787 0.70427 13.759-22.207z" fill="url(#y)"/>
  </g>
 </g>
</svg>
